<svg xmlns="http://www.w3.org/2000/svg" width="80.001" height="56.854" viewBox="0 0 80.001 56.854">
  <g id="agreement" transform="translate(0 -74.069)">
    <g id="Group_9" data-name="Group 9" transform="translate(7.289 75.251)">
      <path id="Path_34" data-name="Path 34" d="M189.335,89.749a71.078,71.078,0,0,1-9.557-6.211s-4.933-4-12.068-.409h0c-4.274,2.149-7.24,5.911-10.944,9.9a3.4,3.4,0,0,0,.454,5.025,4.6,4.6,0,0,0,5.856-.277l5.873-5.343a1.63,1.63,0,0,1,1.975.042A17.483,17.483,0,0,0,183.09,97.47L196.166,112.1a3.98,3.98,0,0,1,1.052,3.086h7V90.126C190.646,90.005,190.7,90.408,189.335,89.749Z" transform="translate(-138.796 -81.634)" fill="#fff"/>
      <path id="Path_35" data-name="Path 35" d="M104.019,115.89,90.943,101.264a17.483,17.483,0,0,1-12.167-4.991,1.63,1.63,0,0,0-1.975-.042l-5.873,5.343a4.6,4.6,0,0,1-5.856.277,3.4,3.4,0,0,1-.454-5.025c3.226-3.22,6.118-7.476,10.944-9.9-1.45-.423-4.529-1.226-6.108-.5-3.746,1.724-7.967,6.262-9.739,7.12-1.359.658-1.518.259-13.067.377v25.056H54.5c8.838,0,25.069,16.96,25.069,16.96h0l.349.394a3.992,3.992,0,0,0,6.193-5.007l.295.316a4.045,4.045,0,0,0,5.53.4,3.992,3.992,0,0,0,1.088-4.7,3.99,3.99,0,0,0,5.814-5.437,3.993,3.993,0,0,0,5.185-6.013Z" transform="translate(-46.649 -85.428)" fill="#fff"/>
    </g>
    <path id="Path_36" data-name="Path 36" d="M465.644,112.133a3.293,3.293,0,0,0-3.293,3.293v25.841a3.293,3.293,0,1,0,6.586,0V115.426A3.293,3.293,0,0,0,465.644,112.133Z" transform="translate(-390.108 -32.117)" fill="#ff9052"/>
    <path id="Path_37" data-name="Path 37" d="M10.794,112.133A3.293,3.293,0,0,0,7.5,115.426v25.841a3.293,3.293,0,0,0,6.586,0V115.426A3.293,3.293,0,0,0,10.794,112.133Z" transform="translate(-6.329 -32.117)" fill="#48c397"/>
    <path id="Path_38" data-name="Path 38" d="M465.644,206.543a3.293,3.293,0,0,1-3.293-3.293v14.9a3.293,3.293,0,0,0,6.586,0v-14.9A3.293,3.293,0,0,1,465.644,206.543Z" transform="translate(-390.108 -108.996)" fill="#ff8031"/>
    <path id="Path_39" data-name="Path 39" d="M10.794,206.543A3.293,3.293,0,0,1,7.5,203.25v14.9a3.293,3.293,0,0,0,6.586,0v-14.9A3.293,3.293,0,0,1,10.794,206.543Z" transform="translate(-6.329 -108.997)" fill="#5fa77e"/>
    <g id="Group_10" data-name="Group 10" transform="translate(7.289 83.743)">
      <path id="Path_40" data-name="Path 40" d="M52.149,146.666a28.064,28.064,0,0,1,2.1-10.681h-7.6v25.056H54.5a3.839,3.839,0,0,1,.544-1.936A28.032,28.032,0,0,1,52.149,146.666Z" transform="translate(-46.65 -135.985)" fill="#e4eaf8"/>
      <path id="Path_41" data-name="Path 41" d="M139.371,292.051a3.829,3.829,0,0,0-5.408-.288L131.476,294l-.6.535a3.829,3.829,0,0,0,5.12,5.7l3.083-2.771A3.83,3.83,0,0,0,139.371,292.051Z" transform="translate(-116.648 -266.594)" fill="#e4eaf8"/>
      <path id="Path_42" data-name="Path 42" d="M172.14,328.5a3.829,3.829,0,0,0-5.408-.288l-3.083,2.771a3.829,3.829,0,1,0,5.12,5.7l3.083-2.771A3.83,3.83,0,0,0,172.14,328.5Z" transform="translate(-144.297 -297.35)" fill="#e4eaf8"/>
      <path id="Path_43" data-name="Path 43" d="M204.908,364.954a3.829,3.829,0,0,0-5.408-.288l-3.083,2.771a3.829,3.829,0,0,0,5.12,5.7l3.083-2.771A3.829,3.829,0,0,0,204.908,364.954Z" transform="translate(-171.945 -328.106)" fill="#e4eaf8"/>
      <path id="Path_44" data-name="Path 44" d="M106.6,255.6a3.829,3.829,0,0,0-5.408-.288l-3.083,2.771a3.829,3.829,0,1,0,5.12,5.7l.6-.535,1.081-.972,1.406-1.264A3.83,3.83,0,0,0,106.6,255.6Z" transform="translate(-89 -235.839)" fill="#e4eaf8"/>
    </g>
    <g id="Group_11" data-name="Group 11" transform="translate(15.132 103.14)">
      <path id="Path_45" data-name="Path 45" d="M101.184,265.349a3.829,3.829,0,0,1,.1-5.228c-.132.11.338-.309-3.174,2.848a3.829,3.829,0,1,0,5.12,5.7l.6-.535,1.081-.972c1.452-1.31,1.43-1.277,1.587-1.438A3.828,3.828,0,0,1,101.184,265.349Z" transform="translate(-96.843 -260.121)" fill="#c3c8d1"/>
      <path id="Path_46" data-name="Path 46" d="M133.952,301.8a3.829,3.829,0,0,1,.1-5.228c-.176.148.1-.088-1.5,1.341l-1.677,1.507a3.829,3.829,0,1,0,5.12,5.7l1.677-1.507c1.452-1.309,1.43-1.277,1.587-1.438A3.828,3.828,0,0,1,133.952,301.8Z" transform="translate(-124.491 -290.876)" fill="#c3c8d1"/>
      <path id="Path_47" data-name="Path 47" d="M166.721,338.253a3.829,3.829,0,0,1,.1-5.228c-.125.1-3.049,2.735-3.174,2.848a3.829,3.829,0,0,0,5.12,5.7c.3-.273,3.145-2.823,3.263-2.945A3.828,3.828,0,0,1,166.721,338.253Z" transform="translate(-152.14 -321.633)" fill="#c3c8d1"/>
      <path id="Path_48" data-name="Path 48" d="M199.489,374.7a3.829,3.829,0,0,1,.1-5.228c-.125.1-3.049,2.735-3.174,2.848a3.829,3.829,0,0,0,5.12,5.7c3.367-3.027,3.139-2.818,3.263-2.945A3.829,3.829,0,0,1,199.489,374.7Z" transform="translate(-179.788 -352.389)" fill="#c3c8d1"/>
    </g>
    <g id="Group_12" data-name="Group 12" transform="translate(0 74.069)">
      <path id="Path_49" data-name="Path 49" d="M78.829,100.791A1.172,1.172,0,0,0,80,99.619V83.309a4.465,4.465,0,0,0-8.868-.738c-12.146-.088-11.848.2-12.794-.26a50.3,50.3,0,0,1-4.608-2.736,1.172,1.172,0,0,0-1.28,1.964c4.255,2.774,5.492,3.376,7.025,3.376h11.6v22.712H66.838a5.159,5.159,0,0,0-1.313-2.7C51.16,88.743,52.233,89.927,51.6,89.915a16.5,16.5,0,0,1-11.313-4.6,2.8,2.8,0,0,0-3.638-.129L30.78,90.53a3.426,3.426,0,0,1-2.436.889c-2.556-.095-3.58-2.512-2.226-3.973,3.385-3.654,4.172-4.5,4.307-4.648-.036.039-.088.095.022-.025a21.786,21.786,0,0,1,6.283-4.979c3.567-1.793,7.787-2.035,11.129.525a1.172,1.172,0,0,0,1.426-1.861c-3.485-2.67-8.306-3.259-13.193-.96-3.009-.833-5.136-.937-6.487-.315-3.861,1.777-8.242,6.4-9.76,7.129-.953.461-.908.175-10.977.26A4.465,4.465,0,0,0,0,83.309v3.645a1.172,1.172,0,0,0,2.344,0V83.309a2.121,2.121,0,0,1,4.242,0v25.841a2.121,2.121,0,0,1-4.242,0V92.841a1.172,1.172,0,0,0-2.344,0v16.31a4.464,4.464,0,0,0,8.853.821h5.239a4.991,4.991,0,0,0,5.04,3.86,4.993,4.993,0,0,0,5.12,5.7,4.993,4.993,0,0,0,5.12,5.7,5.006,5.006,0,0,0,8.293,4.42l2.5-2.248a5.161,5.161,0,0,0,8.457-3.643,5.134,5.134,0,0,0,6.534-4.5,5.152,5.152,0,0,0,6.34-5.662,5.151,5.151,0,0,0,5.173-3.621h4.479A4.464,4.464,0,0,0,80,109.151v-3.915a1.172,1.172,0,0,0-2.344,0v3.915a2.121,2.121,0,0,1-4.242,0V83.309a2.121,2.121,0,0,1,4.242,0v16.31A1.171,1.171,0,0,0,78.829,100.791Zm-62.4,7.266a2.665,2.665,0,0,1,.76-1.2c3.065-2.755,3.32-3.135,4.158-3.358a2.658,2.658,0,0,1,2.476,4.54l-3.082,2.77A2.658,2.658,0,0,1,16.424,108.057Zm5.681,8.251a2.661,2.661,0,0,1,.2-3.753l3.083-2.771a2.664,2.664,0,0,1,3.753.2h0a2.664,2.664,0,0,1,0,3.557c-.171.189-.028.037-3.279,2.967A2.66,2.66,0,0,1,22.105,116.308Zm5.12,5.7a2.661,2.661,0,0,1,.2-3.753c3.242-2.9,3.42-3.254,4.437-3.417a2.661,2.661,0,0,1,2.4.846h0a2.661,2.661,0,0,1-.2,3.753L30.978,122.2A2.661,2.661,0,0,1,27.225,122Zm12.118,2.962c-.179.191.015-.005-3.245,2.933a2.657,2.657,0,1,1-3.553-3.953c3.149-2.817,3.375-3.225,4.371-3.408a2.639,2.639,0,0,1,2.464.837h0A2.668,2.668,0,0,1,39.343,124.966Zm20.8-14.2a1.173,1.173,0,0,0-1.574,1.7,2.818,2.818,0,0,1-4.106,3.84,1.173,1.173,0,0,0-1.868,1.337,2.821,2.821,0,0,1-4.691,3.02l-.295-.316a1.172,1.172,0,0,0-1.818,1.471,2.82,2.82,0,0,1-4.05,3.835,5.016,5.016,0,0,0-4.494-7.506,5.009,5.009,0,0,0-5.127-5.69,5,5,0,0,0-5.119-5.7,4.982,4.982,0,0,0-1.233-4.041h0a5,5,0,0,0-7.063-.376c-3.2,2.885-3.115,2.782-3.376,3.059a4.97,4.97,0,0,0-1.215,2.223H8.93V84.915c9.506-.144,10.2.348,11.936-.494,1.98-.958,6.139-5.463,9.719-7.11a4.749,4.749,0,0,1,2.547-.072C29.416,79.87,27.2,83.086,24.4,85.852c-2.756,2.976-.617,7.936,4.1,7.912a5.764,5.764,0,0,0,3.856-1.5l5.812-5.287a.454.454,0,0,1,.467,0,18.777,18.777,0,0,0,12.408,5.264c13.867,15.508,12.8,14.308,12.95,14.5a5.3,5.3,0,0,1,.55,1.954A2.82,2.82,0,0,1,60.14,110.762Z" transform="translate(0 -74.069)" fill="#474d54"/>
      <path id="Path_50" data-name="Path 50" d="M194.72,129.789Z" transform="translate(-164.295 -121.061)" fill="#474d54"/>
    </g>
  </g>
</svg>
