<svg xmlns="http://www.w3.org/2000/svg" width="1560" height="1701.404" viewBox="0 0 1560 1701.404">
  <g id="Background" transform="translate(-3528.009 1135.805)">
    <g id="Rectangle_100" data-name="Rectangle 100" transform="translate(3528.009 -1135.805)" fill="#f5f5f5" stroke="#707070" stroke-width="1">
      <rect width="1560" height="1701" stroke="none"/>
      <rect x="0.5" y="0.5" width="1559" height="1700" fill="none"/>
    </g>
    <g id="Background-elements" transform="translate(3685.74 -1051.275)">
      <path id="Union_9" data-name="Union 9" d="M83.107,238.685v-82.61H0V82.61H83.107V0h71.552V82.61H237.77v73.465H154.659v82.61Z" transform="matrix(0.438, -0.899, 0.899, 0.438, 69.422, 213.706)" fill="#e8e8e8"/>
      <path id="Union_10" data-name="Union 10" d="M62.975,180.261V117.872H0V62.389H62.975V0h54.219V62.389h62.978v55.482H117.194v62.389Z" transform="translate(498.625 858.543) rotate(-31)" fill="#e8e8e8"/>
      <path id="Union_13" data-name="Union 13" d="M46.789,133.931V87.576H0V46.354H46.789V0H87.073V46.354h46.792V87.576H87.073v46.354Z" transform="translate(152.147 632.831) rotate(-31)" fill="#e8e8e8"/>
      <path id="Union_11" data-name="Union 11" d="M87.4,251.018V164.139H0V86.879H87.4V0h75.249V86.879h87.406v77.261H162.651v86.879Z" transform="translate(1008.202 373.78) rotate(-31)" fill="#e8e8e8"/>
      <path id="Union_12" data-name="Union 12" d="M124.128,356.5V233.112H0V123.386H124.128V0H231V123.386H355.132V233.112H231V356.5Z" transform="translate(0 1311.295) rotate(-31)" fill="#e8e8e8"/>
      <path id="Union_14" data-name="Union 14" d="M73.775,211.883V138.549H0V73.334H73.775V0h63.518V73.334h73.779v65.215H137.292v73.334Z" transform="translate(1008.202 1435.255) rotate(-31)" fill="#e8e8e8"/>
    </g>
  </g>
</svg>
