<svg xmlns="http://www.w3.org/2000/svg" width="526.289" height="629.477" viewBox="0 0 526.289 629.477">
  <g id="Background-elements" transform="translate(0 0)">
    <path id="Union_9" data-name="Union 9" d="M32.355,92.924V60.763H0v-28.6H32.355V0H60.211V32.161H92.568v28.6H60.211V92.924Z" transform="matrix(0.438, -0.899, 0.899, 0.438, 27.027, 83.199)" fill="#e8e8e8"/>
    <path id="Union_10" data-name="Union 10" d="M24.517,70.179V45.889H0v-21.6H24.517V0H45.626V24.289H70.144v21.6H45.626V70.179Z" transform="translate(194.123 334.245) rotate(-31)" fill="#e8e8e8"/>
    <path id="Union_13" data-name="Union 13" d="M18.216,52.141V34.1H0V18.046H18.216V0H33.9V18.046H52.116V34.1H33.9V52.141Z" transform="translate(59.233 246.372) rotate(-31)" fill="#e8e8e8"/>
    <path id="Union_11" data-name="Union 11" d="M34.027,97.726V63.9H0V33.823H34.027V0h29.3V33.823H97.351V63.9H63.323V97.726Z" transform="translate(392.51 145.519) rotate(-31)" fill="#e8e8e8"/>
    <path id="Union_12" data-name="Union 12" d="M48.325,138.791V90.755H0V48.036H48.325V0H89.931V48.036h48.328V90.755H89.931v48.036Z" transform="translate(0 510.51) rotate(-31)" fill="#e8e8e8"/>
    <path id="Union_14" data-name="Union 14" d="M28.722,82.49V53.939H0V28.55H28.722V0H53.45V28.55H82.173V53.939H53.45V82.49Z" transform="translate(392.51 558.769) rotate(-31)" fill="#e8e8e8"/>
  </g>
</svg>
