<svg xmlns="http://www.w3.org/2000/svg" width="907.47" height="832.571" viewBox="0 0 907.47 832.571">
  <g id="Background-elements_2" transform="translate(-174.547 1014.739) rotate(-90)">
    <path id="Union_9" data-name="Union 9" d="M73.79,211.927V138.578H0V73.349H73.79V0h63.531V73.349h73.794v65.229H137.321v73.349Z" transform="matrix(0.438, -0.899, 0.899, 0.438, 268.225, 387.038)" fill="#e8e8e8"/>
    <path id="Union_10" data-name="Union 10" d="M55.915,160.053v-55.4H0V55.4H55.915V0h48.141V55.4h55.918v49.263H104.056v55.4Z" transform="translate(441.471 539.321) rotate(-31)" fill="#e8e8e8"/>
    <path id="Union_13" data-name="Union 13" d="M41.544,118.916V77.759H0v-36.6H41.544V0H77.312V41.157h41.546v36.6H77.312v41.157Z" transform="translate(182.168 627.936) rotate(-31)" fill="#e8e8e8"/>
    <path id="Union_11" data-name="Union 11" d="M77.6,222.878V145.739H0v-68.6H77.6V0h66.814V77.139h77.607v68.6H144.417v77.139Z" transform="translate(604.653 288.897) rotate(-31)" fill="#e8e8e8"/>
    <path id="Union_12" data-name="Union 12" d="M110.212,316.533V206.979H0V109.554H110.212V0H205.1V109.554H315.32v97.426H205.1V316.533Z" transform="translate(265.228 810.695) rotate(-31)" fill="#e8e8e8"/>
    <path id="Union_14" data-name="Union 14" d="M65.5,188.129V123.017H0v-57.9H65.5V0h56.4V65.113h65.508v57.9H121.9v65.113Z" transform="translate(757.204 663.243) rotate(-31)" fill="#e8e8e8"/>
  </g>
</svg>
