<svg xmlns="http://www.w3.org/2000/svg" width="88.489" height="64.684" viewBox="0 0 88.489 64.684">
  <g id="delivery-truck" transform="translate(0 -68.868)">
    <path id="Path_51" data-name="Path 51" d="M138.658,256.028c8.624.012,8.422,8.642,15.33,8.642-.458,5.337-1.521,13.826-1.521,13.826H81l1.339-13.828H130l.752-8.64h7.905Z" transform="translate(-67.004 -154.813)" fill="#ccd1d9"/>
    <path id="Path_52" data-name="Path 52" d="M466.169,293.654l-1.681,15.965h5.185s1.063-8.489,1.521-13.826a6.874,6.874,0,0,1-5.025-2.139Z" transform="translate(-384.21 -185.936)" fill="#aab2bc"/>
    <g id="Group_13" data-name="Group 13" transform="translate(20.982 115.109)">
      <path id="Path_53" data-name="Path 53" d="M129.976,336.418a8.573,8.573,0,1,1-8.572,8.574A8.574,8.574,0,0,1,129.976,336.418Z" transform="translate(-121.404 -336.418)" fill="#656d78"/>
      <path id="Path_54" data-name="Path 54" d="M363.462,336.418a8.573,8.573,0,1,1-8.572,8.574A8.574,8.574,0,0,1,363.462,336.418Z" transform="translate(-314.537 -336.418)" fill="#656d78"/>
    </g>
    <g id="Group_14" data-name="Group 14" transform="translate(26.098 120.226)">
      <path id="Path_55" data-name="Path 55" d="M154.461,366.028A3.457,3.457,0,1,1,151,369.485,3.456,3.456,0,0,1,154.461,366.028Z" transform="translate(-151.004 -366.028)" fill="#ccd1d9"/>
      <path id="Path_56" data-name="Path 56" d="M387.947,366.028a3.457,3.457,0,1,1-3.457,3.457A3.456,3.456,0,0,1,387.947,366.028Z" transform="translate(-344.137 -366.028)" fill="#ccd1d9"/>
    </g>
    <path id="Path_57" data-name="Path 57" d="M377.656,196.056c-.3-.019-.608-.028-.916-.028h-6.986l-.9,10.37h7.905c8.624.012,8.422,8.642,15.33,8.642.128-1.474.209-2.708.209-3.457A15.544,15.544,0,0,0,377.656,196.056Z" transform="translate(-305.101 -105.183)" fill="#5d9cec"/>
    <path id="Path_58" data-name="Path 58" d="M390.6,196.056c-.3-.019-.608-.028-.916-.028H384.5c.308,0,.614.009.916.028a15.544,15.544,0,0,1,14.639,15.527c0,.344-.017.792-.048,1.318a6.874,6.874,0,0,0,5.025,2.139c.128-1.474.209-2.708.209-3.457A15.544,15.544,0,0,0,390.6,196.056Z" transform="translate(-318.044 -105.183)" fill="#4a89dc"/>
    <path id="Path_59" data-name="Path 59" d="M91.6,86.679l1-10.311h47.268l-1.8,20.681-.9,10.37-.752,8.64H88.754l1-10.368Z" transform="translate(-73.415 -6.204)" fill="#ed5565"/>
    <path id="Path_60" data-name="Path 60" d="M337.954,76.368l-1.8,20.681-.9,10.37-.752,8.64h5.185l.752-8.64.9-10.37,1.8-20.681Z" transform="translate(-276.686 -6.204)" fill="#da4453"/>
    <path id="Path_61" data-name="Path 61" d="M86.523,124.429l.018-.025c.021-.032.041-.064.059-.1l0-.006c.02-.036.038-.073.054-.111,0-.011.008-.022.012-.033.011-.027.021-.054.03-.081s.01-.036.015-.055.012-.043.017-.065.007-.04.01-.059.007-.035.009-.052c.055-.44,1.07-8.584,1.523-13.85,0-.005,0-.01,0-.015.13-1.518.214-2.8.214-3.579A16.87,16.87,0,0,0,71.638,89.548H66.067l1.679-19.272c0-.035,0-.069,0-.1,0,0,0-.006,0-.009h0a1.3,1.3,0,0,0-.782-1.188l-.012-.006c-.029-.012-.059-.022-.089-.032l-.033-.012c-.025-.007-.05-.013-.075-.019l-.052-.013-.067-.01c-.021,0-.042-.007-.063-.009h-.011c-.023,0-.045,0-.068,0l-.045,0H39.926a1.3,1.3,0,1,0,0,2.592H65.04l-2.58,29.619s0,0,0,.007l-.651,7.473H16.768l.753-7.777H26.1a1.3,1.3,0,1,0,0-2.592H17.772l1.591-16.418H33.012a1.3,1.3,0,1,0,0-2.592h-13.4l.748-7.719H34.741a1.3,1.3,0,0,0,0-2.592H19.184a1.3,1.3,0,0,0-1.265,1.023l0,.013c-.007.032-.011.065-.015.1,0,.011,0,.021,0,.031v.006l-.886,9.14H1.3a1.3,1.3,0,0,0,0,2.592H16.759L15.168,98.19H10.543a1.3,1.3,0,1,0,0,2.592h4.374l-.866,8.939v0l-1.339,13.823v.01c0,.018,0,.036,0,.054s0,.047,0,.071c0,0,0,0,0,0,0,.033,0,.066,0,.1,0,.011,0,.021,0,.032,0,.034.009.067.015.1,0,.01,0,.02,0,.029.005.025.012.049.019.073s.008.035.013.051l.005.014a1.3,1.3,0,0,0,.308.507l.007.008c.014.014.029.026.043.039a1.287,1.287,0,0,0,.3.206c.023.011.046.023.069.033l.022.008c.032.013.065.025.1.036l.009,0c.038.011.077.021.117.03l.016,0c.038.007.076.013.114.017h0q.064.006.127.006h5.772a9.867,9.867,0,0,0,19.563,0H60.128a9.867,9.867,0,0,0,19.563,0h5.775c.043,0,.086,0,.128-.007l.022,0c.034,0,.067-.009.1-.015l.042-.01c.025-.006.051-.012.076-.02l.05-.017.063-.023.053-.023.057-.027.052-.028.053-.032.048-.032.052-.038.042-.034c.018-.015.035-.031.052-.047l.035-.034c.018-.018.035-.038.052-.057l.027-.031C86.488,124.477,86.505,124.453,86.523,124.429ZM85.9,106.4c0,.486-.036,1.192-.1,2.041-1.926-.393-3.111-1.747-4.547-3.4-1.8-2.063-3.988-4.58-8.19-5.049l.671-7.7A14.28,14.28,0,0,1,85.9,106.4ZM71.144,92.141l-.677,7.777h-5.3l.677-7.777ZM63,111.152h0a1.276,1.276,0,0,0,.129-.007l.024,0c.034,0,.068-.009.1-.015l.043-.01c.026-.006.052-.012.077-.02l.05-.017.065-.024.053-.024L63.6,111l.052-.029.053-.032.049-.034.05-.038.044-.037.048-.044.039-.039.045-.05.034-.041c.014-.018.028-.037.041-.056l.03-.043c.013-.02.025-.04.036-.06s.018-.03.026-.046.02-.041.03-.062.015-.033.022-.05.016-.041.023-.062.013-.037.019-.056.01-.041.016-.061.011-.041.015-.062.006-.041.009-.062.007-.043.009-.064c0,0,0-.006,0-.009l.65-7.458h6.7c3.971,0,5.763,2.058,7.659,4.236,1.565,1.8,3.311,3.8,6.281,4.293-.377,3.987-.987,9.106-1.259,11.347H79.691a9.867,9.867,0,0,0-19.563,0H39.337a9.867,9.867,0,0,0-19.563,0H15.428l1.089-11.235H63ZM29.555,130.959a7.277,7.277,0,1,1,7.277-7.277A7.285,7.285,0,0,1,29.555,130.959Zm40.354,0a7.277,7.277,0,1,1,7.277-7.277A7.285,7.285,0,0,1,69.909,130.959Z"/>
    <path id="Path_62" data-name="Path 62" d="M148.261,358.524a4.753,4.753,0,1,0,4.753,4.753A4.758,4.758,0,0,0,148.261,358.524Zm0,6.913a2.16,2.16,0,1,1,2.16-2.16A2.163,2.163,0,0,1,148.261,365.437Z" transform="translate(-118.705 -239.595)"/>
    <path id="Path_63" data-name="Path 63" d="M381.749,358.524a4.753,4.753,0,1,0,4.753,4.753A4.758,4.758,0,0,0,381.749,358.524Zm0,6.913a2.16,2.16,0,1,1,2.16-2.16A2.163,2.163,0,0,1,381.749,365.437Z" transform="translate(-311.84 -239.595)"/>
    <path id="Path_64" data-name="Path 64" d="M35.763,189.823a1.3,1.3,0,0,0-1.3-1.3H28.13a1.3,1.3,0,1,0,0,2.592h6.337A1.3,1.3,0,0,0,35.763,189.823Z" transform="translate(-22.196 -98.978)"/>
  </g>
</svg>
