<svg xmlns="http://www.w3.org/2000/svg" width="1366" height="477.35" viewBox="0 0 1366 477.35">
  <g id="hero-section-background" transform="translate(0 -290.65)">
    <path id="curves" d="M6422,584.364s252.453,119.635,689.4,0C7472.531,464.081,7580.3,296.65,7788,296.65V774H6422" transform="translate(-6422 -6)" fill="#fafafa"/>
    <path id="Union_1" data-name="Union 1" d="M12.454,35.877V23.46H0V12.417H12.454V0H23.176V12.417H35.628V23.46H23.176V35.877Z" transform="matrix(0.809, 0.588, -0.588, 0.809, 171.088, 691.283)" fill="#e8e8e8"/>
    <path id="Union_7" data-name="Union 7" d="M17.89,52.927V34.609H0V18.318H17.89V0h15.4V18.318h17.89v16.29H33.291V52.927Z" transform="matrix(0.809, 0.588, -0.588, 0.809, 34.706, 612.435)" fill="#e8e8e8"/>
    <path id="Union_3" data-name="Union 3" d="M9.671,27.815V18.188H0V9.627H9.671V0H18V9.627h9.671v8.561H18v9.627Z" transform="translate(630.726 712.732) rotate(30)" fill="#e8e8e8"/>
    <path id="Union_6" data-name="Union 6" d="M15.789,45.41V29.693H0V15.717H15.789V0H29.382V15.717H45.171V29.693H29.382V45.41Z" transform="translate(794.557 589.654) rotate(30)" fill="#e8e8e8"/>
    <path id="Union_4" data-name="Union 4" d="M23.519,67.548V44.169H0V23.379H23.519V0H43.769V23.379H67.289V44.169H43.769V67.548Z" transform="matrix(0.438, -0.899, 0.899, 0.438, 1275.791, 544.759)" fill="#e8e8e8"/>
    <path id="Union_5" data-name="Union 5" d="M13.141,38.035V24.871H0V13.164H13.141V0H24.456V13.164H37.6V24.871H24.456V38.035Z" transform="translate(1119.712 731.621) rotate(-135)" fill="#e8e8e8"/>
    <path id="Union_8" data-name="Union 8" d="M8.094,23.579V15.418H0V8.161H8.094V0h6.97V8.161h8.1v7.257h-8.1v8.161Z" transform="translate(413.524 681.811) rotate(-135)" fill="#e8e8e8"/>
  </g>
</svg>
