<svg xmlns="http://www.w3.org/2000/svg" xmlns:xlink="http://www.w3.org/1999/xlink" width="308.738" height="427.894" viewBox="0 0 308.738 427.894">
  <defs>
    <radialGradient id="radial-gradient" cx="0.5" cy="0.5" r="0.5" gradientUnits="objectBoundingBox">
      <stop offset="0" stop-color="#fff"/>
      <stop offset="1" stop-color="#e8e8e8"/>
    </radialGradient>
    <linearGradient id="linear-gradient" x1="0.5" x2="0.5" y2="1" gradientUnits="objectBoundingBox">
      <stop offset="0" stop-color="#f3f3f3"/>
      <stop offset="1" stop-color="#e8e8e8"/>
    </linearGradient>
  </defs>
  <g id="Layer_x0020_1" transform="translate(0)">
    <path id="Path_626" data-name="Path 626" d="M206.376,650.63h50.081v5.847a5.861,5.861,0,0,1-5.847,5.847h-38.42a5.838,5.838,0,0,1-5.821-5.821V650.63Z" transform="translate(-74.358 -234.429)" fill="#e6e6e6" fill-rule="evenodd"/>
    <path id="Path_627" data-name="Path 627" d="M180.66,75.686c60.975,0,108.876,51.393,108.876,112.361,0,117.645-63.47,79.85-63.47,183.009H138.678c0-89.614-68.428-78.023-68.428-183.009,0-60.975,49.429-112.368,110.4-112.368Z" transform="translate(-25.312 -27.268)" fill-rule="evenodd" fill="url(#radial-gradient)"/>
    <g id="_1954283639760" transform="translate(95.154 95.154)">
      <path id="Path_628" data-name="Path 628" d="M217.075,161.006a47.545,47.545,0,0,1,17.649,7.318l8.674-8.674,12.883,12.883-8.668,8.668a47.545,47.545,0,0,1,7.318,17.649h12.256v18.218H254.932a47.545,47.545,0,0,1-7.318,17.649l8.674,8.674L243.4,256.275l-8.674-8.674a47.545,47.545,0,0,1-17.649,7.318v12.256H198.863V254.919a47.545,47.545,0,0,1-17.649-7.318l-8.674,8.674-12.883-12.883,8.668-8.668a47.545,47.545,0,0,1-7.318-17.649H148.75V198.857h12.256a47.545,47.545,0,0,1,7.318-17.649l-8.674-8.674,12.883-12.883,8.674,8.674a47.545,47.545,0,0,1,17.649-7.318V148.75h18.218v12.256Z" transform="translate(-148.75 -141.75)" fill="#881010" fill-rule="evenodd"/>
      <path id="Path_629" data-name="Path 629" d="M226.248,199.49a26.758,26.758,0,1,1-26.758,26.758,26.76,26.76,0,0,1,26.758-26.758Zm0,7.99a18.768,18.768,0,1,1-18.768,18.768A18.768,18.768,0,0,1,226.248,207.48Z" transform="translate(-167.032 -160.032)" fill="#e6e6e6" fill-rule="evenodd"/>
    </g>
    <path id="Path_630" data-name="Path 630" d="M177.23,537.44h87.388v51.284a24.538,24.538,0,0,1-24.468,24.468H202.165a25.008,25.008,0,0,1-24.935-24.935Z" transform="translate(-63.858 -193.646)" fill="#881010" fill-rule="evenodd"/>
    <path id="Path_631" data-name="Path 631" d="M264.455,625.09A24.351,24.351,0,0,1,260.707,634c-13.158.864-26.317,2.2-39.482,2.2-13.082,0-26.157-1.324-39.226-2.188a24.808,24.808,0,0,1-3.889-8.917c14.367.832,28.741,2.431,43.121,2.431,14.412,0,28.818-1.606,43.23-2.437Z" transform="translate(-64.175 -225.227)" fill="#e6e6e6" fill-rule="evenodd"/>
    <path id="Path_632" data-name="Path 632" d="M177.23,555.76c14.559.825,29.112,2.463,43.684,2.463s29.138-1.644,43.7-2.463v8.674c-14.566.819-29.131,2.463-43.7,2.463s-29.125-1.638-43.684-2.463V555.76Z" transform="translate(-63.858 -200.247)" fill="#e6e6e6" fill-rule="evenodd"/>
    <path id="Path_633" data-name="Path 633" d="M177.23,590.4c14.559.825,29.112,2.463,43.684,2.463s29.138-1.644,43.7-2.463v8.674c-14.566.825-29.131,2.463-43.7,2.463s-29.125-1.638-43.684-2.463V590.4Z" transform="translate(-63.858 -212.728)" fill="#e6e6e6" fill-rule="evenodd"/>
    <rect id="Rectangle_40" data-name="Rectangle 40" width="8.118" height="32.464" rx="4.059" transform="translate(151.286)" fill="url(#linear-gradient)"/>
    <rect id="Rectangle_41" data-name="Rectangle 41" width="8.118" height="32.466" rx="4.059" transform="translate(228.886 19.142) rotate(30)" fill="url(#linear-gradient)"/>
    <rect id="Rectangle_42" data-name="Rectangle 42" width="8.118" height="32.466" rx="4.059" transform="translate(286.517 74.517) rotate(60)" fill="url(#linear-gradient)"/>
    <rect id="Rectangle_43" data-name="Rectangle 43" width="8.118" height="32.466" rx="4.059" transform="translate(308.738 151.29) rotate(90)" fill="url(#linear-gradient)"/>
    <rect id="Rectangle_44" data-name="Rectangle 44" width="8.118" height="32.466" rx="4.059" transform="translate(74.517 22.221) rotate(-30)" fill="url(#linear-gradient)"/>
    <rect id="Rectangle_45" data-name="Rectangle 45" width="8.118" height="32.466" rx="4.059" transform="translate(19.141 79.852) rotate(-60)" fill="url(#linear-gradient)"/>
    <rect id="Rectangle_46" data-name="Rectangle 46" width="8.118" height="32.466" rx="4.059" transform="translate(0 157.449) rotate(-90)" fill="url(#linear-gradient)"/>
  </g>
</svg>
