<svg id="Avatar_man" data-name="Avatar man" xmlns="http://www.w3.org/2000/svg" xmlns:xlink="http://www.w3.org/1999/xlink" width="56" height="56" viewBox="0 0 56 56">
  <defs>
    <clipPath id="clip-path">
      <path id="Path_722" data-name="Path 722" d="M28,0A28,28,0,1,1,0,28,28,28,0,0,1,28,0Z" transform="translate(0 0)" fill="#fff" stroke="#707070" stroke-width="1"/>
    </clipPath>
  </defs>
  <circle id="Ellipse_21" data-name="Ellipse 21" cx="28" cy="28" r="28" fill="#545465"/>
  <g id="Mask_Group_11" data-name="Mask Group 11" clip-path="url(#clip-path)">
    <g id="XMLID_1400_" transform="translate(7.133 7)">
      <g id="XMLID_1401_" transform="translate(6.399 27.285)">
        <g id="XMLID_1402_" transform="translate(0 0)">
          <path id="XMLID_1403_" d="M112.654,171.038c-3.246-1.162-8.949-2.041-8.949-14.152H92.668c0,12.111-5.7,12.99-8.949,14.152,0,8.238,11.971,8.491,14.033,9.259v.267s.16-.033.435-.118c.275.086.435.118.435.118V180.3C100.684,179.529,112.654,179.276,112.654,171.038Z" transform="translate(-83.719 -156.886)" fill="#f3d8b6"/>
        </g>
        <path id="XMLID_1404_" d="M172.151,156.886h-5.576v23.578l.058-.018c.275.086.435.118.435.118V180.3c2.062-.768,14.033-1.021,14.033-9.259C177.854,169.876,172.151,169,172.151,156.886Z" transform="translate(-152.165 -156.886)" fill="#eec8a2"/>
      </g>
      <g id="XMLID_1405_" transform="translate(7.266 16.242)">
        <ellipse id="XMLID_65_" cx="2.989" cy="1.747" rx="2.989" ry="1.747" transform="translate(21.625 5.59) rotate(-69.249)" fill="#edceae"/>
        <ellipse id="XMLID_64_" cx="2.989" cy="1.747" rx="2.989" ry="1.747" transform="translate(3.268 0) rotate(69.249)" fill="#f3dbc4"/>
      </g>
      <g id="XMLID_1406_" transform="translate(9.258 2.848)">
        <g id="XMLID_1407_">
          <path id="XMLID_1408_" d="M111.768,44.961c-4.775,0-8.419-4.021-10.052-7.036s-2.763-13.817.755-18.591c3.445-4.675,9.3-2.407,9.3-2.407s5.852-2.269,9.3,2.407c3.518,4.774,2.387,15.576.754,18.591S116.542,44.961,111.768,44.961Z" transform="translate(-100.16 -16.378)" fill="#f3dbc4"/>
        </g>
        <path id="XMLID_1409_" d="M175.93,19.335c-3.445-4.675-9.3-2.407-9.3-2.407l-.058-.021V44.96l.058,0c4.774,0,8.418-4.021,10.051-7.036S179.448,24.11,175.93,19.335Z" transform="translate(-155.025 -16.378)" fill="#edceae"/>
      </g>
      <g id="XMLID_1410_" transform="translate(0 37.036)">
        <g id="XMLID_1411_">
          <path id="XMLID_1414_" d="M88.659,226.9v7.075H46.926V226.9a14.572,14.572,0,0,1,7.062-12.333,21.942,21.942,0,0,1,4.669-1.6c1.035-.259,9.294,3.953,9.294,3.953s8.465-4.038,9.5-3.779A17.323,17.323,0,0,1,81.6,214.57,14.572,14.572,0,0,1,88.659,226.9Z" transform="translate(-46.926 -212.959)" fill="#f7f7f7"/>
        </g>
        <path id="XMLID_1417_" d="M180.438,215.393a17.341,17.341,0,0,0-4.147-1.425c-1.035-.259-9.5,3.779-9.5,3.779l-.215-.109V234.8H187.5v-7.075A14.573,14.573,0,0,0,180.438,215.393Z" transform="translate(-145.766 -213.782)" fill="#fafafa"/>
      </g>
      <g id="XMLID_1418_" transform="translate(17.098 40.615)">
        <path id="XMLID_1419_" d="M152.777,234.727l-3.768-1.189-3.768,1.189,2.489,1.912-1.562,14.339h5.681l-1.562-14.339Z" transform="translate(-145.241 -233.538)" fill="#d7734a"/>
        <path id="XMLID_1420_" d="M170.4,234.727l-3.768-1.189-.058.018v17.421h2.9l-1.562-14.339Z" transform="translate(-162.865 -233.538)" fill="#d35d3b"/>
      </g>
      <g id="XMLID_1421_" transform="translate(11.916 36.391)">
        <path id="XMLID_1422_" d="M132.768,209.247l-8.377,4.077-8.377-4.077c-2,.957,1.808,6.685,2.58,6.406,1.907-.689,5.8-1.8,5.8-1.8s3.891,1.108,5.8,1.8C130.96,215.932,134.768,210.2,132.768,209.247Z" transform="translate(-115.441 -209.247)" fill="#fff"/>
        <path id="XMLID_1423_" d="M175.01,209.247l-8.377,4.077-.058-.028v.578l.058-.017s3.891,1.108,5.8,1.8C173.2,215.932,177.01,210.2,175.01,209.247Z" transform="translate(-157.682 -209.247)" fill="#dedde0"/>
        <path id="XMLID_1423_2" data-name="XMLID_1423_" d="M167.142,209.247l8.27,4.077.057-.028v.578l-.057-.017s-3.841,1.108-5.723,1.8C168.926,215.932,165.167,210.2,167.142,209.247Z" transform="translate(-166.575 -209.247)" fill="#dedde0"/>
      </g>
      <g id="XMLID_1424_" transform="translate(18.055 27.285)">
        <path id="XMLID_1427_" d="M156.365,157.565l-2.861-.679-2.762.679.4,3.572a6.249,6.249,0,0,0,4.829,0Z" transform="translate(-150.742 -156.886)" fill="#e1a98c"/>
        <path id="XMLID_1428_" d="M166.583,156.886l-.008,0v4.734l.058,0a6.363,6.363,0,0,0,2.414-.485l.4-3.573Z" transform="translate(-163.821 -156.886)" fill="#d2987b"/>
      </g>
      <g id="XMLID_1429_" transform="translate(8.844 0)">
        <g id="XMLID_1430_">
          <path id="XMLID_1433_" d="M119.654,4.4c-.375.014-2.136-5.444-6.832-4.227a47.43,47.43,0,0,0-4.89,1.646C102.818.255,97.926,4.339,98.107,8.168c.306,6.447-.831,6.349-.051,8.6s1.472,4.071,1.472,4.071.173.62.52-2.931-.818-5.457,1.937-5.457c9.122,0-3.426,3.543,2.426,3.543,5.807,0,10.3-4.762,13.03-5.108s1.59,3.471,1.937,7.022.52,2.931.52,2.931a6.246,6.246,0,0,0,1.472-4.071C121.281,14.081,122.477,4.3,119.654,4.4Z" transform="translate(-97.777 0)" fill="#e1a98c"/>
        </g>
        <path id="XMLID_1434_" d="M176.487,4.4c-.375.014-2.136-5.444-6.832-4.227a26.3,26.3,0,0,0-3.081.963V14.755c3.262-1.436,5.873-3.637,7.7-3.868,2.733-.346,1.59,3.471,1.937,7.022s.52,2.931.52,2.931A6.246,6.246,0,0,0,178.2,16.77C178.114,14.082,179.31,4.3,176.487,4.4Z" transform="translate(-154.61 0)" fill="#d2987b"/>
      </g>
      <g id="XMLID_1435_" transform="translate(7.266 16.242)">
        <ellipse id="XMLID_33_" cx="2.989" cy="1.747" rx="2.989" ry="1.747" transform="translate(21.625 5.59) rotate(-69.249)" fill="#edceae"/>
        <ellipse id="XMLID_32_" cx="2.989" cy="1.747" rx="2.989" ry="1.747" transform="translate(3.268 0) rotate(69.249)" fill="#f3dbc4"/>
      </g>
    </g>
  </g>
</svg>
