<svg xmlns="http://www.w3.org/2000/svg" width="18.159" height="18.193" viewBox="0 0 18.159 18.193">
  <path id="phone-outline" d="M19.3,15v2.513a1.675,1.675,0,0,1-1.826,1.675,16.575,16.575,0,0,1-7.228-2.571,16.332,16.332,0,0,1-5.025-5.025A16.575,16.575,0,0,1,2.647,4.326,1.675,1.675,0,0,1,4.313,2.5H6.826A1.675,1.675,0,0,1,8.5,3.941a10.754,10.754,0,0,0,.586,2.354,1.675,1.675,0,0,1-.377,1.767L7.647,9.125a13.4,13.4,0,0,0,5.025,5.025l1.064-1.064A1.675,1.675,0,0,1,15.5,12.71a10.754,10.754,0,0,0,2.354.586A1.675,1.675,0,0,1,19.3,15Z" transform="translate(-1.889 -1.75)" fill="none" stroke="#0288d1" stroke-linecap="round" stroke-linejoin="round" stroke-width="1.5"/>
</svg>
