<svg xmlns="http://www.w3.org/2000/svg" width="60" height="60" viewBox="0 0 60 60">
  <path id="Icon_awesome-phone-alt" data-name="Icon awesome-phone-alt" d="M58.289,42.4,45.163,36.774a2.813,2.813,0,0,0-3.281.809l-5.813,7.1A43.437,43.437,0,0,1,15.3,23.92l7.1-5.813a2.806,2.806,0,0,0,.809-3.281L17.59,1.7A2.831,2.831,0,0,0,14.367.072L2.18,2.884A2.813,2.813,0,0,0,0,5.625,54.37,54.37,0,0,0,54.376,60a2.813,2.813,0,0,0,2.742-2.18L59.93,45.633A2.847,2.847,0,0,0,58.289,42.4Z" transform="translate(0 -0.001)" fill="#0288d1"/>
</svg>
