<svg xmlns="http://www.w3.org/2000/svg" width="16.691" height="16.691" viewBox="0 0 16.691 16.691">
  <path id="whatsapp-outline" d="M12.169,10c-.209-.1-1.229-.6-1.419-.672s-.329-.1-.468.1-.536.67-.657.808-.243.146-.449.052A5.644,5.644,0,0,1,7.505,9.262a6.31,6.31,0,0,1-1.154-1.44c-.121-.209-.013-.323.09-.428s.209-.24.314-.364a1.763,1.763,0,0,0,.207-.345.382.382,0,0,0-.017-.364c-.052-.1-.467-1.127-.641-1.534s-.339-.355-.467-.355-.258-.01-.4-.01a.784.784,0,0,0-.554.25,2.322,2.322,0,0,0-.727,1.721,4.069,4.069,0,0,0,.848,2.139,9.273,9.273,0,0,0,3.547,3.119c.5.209.883.334,1.185.437a2.877,2.877,0,0,0,1.307.084,2.14,2.14,0,0,0,1.4-.992,1.721,1.721,0,0,0,.125-.991c-.051-.094-.188-.146-.4-.24M8.388,15.126H8.377a6.957,6.957,0,0,1-3.516-.96l-.25-.149L2,14.7l.7-2.535L2.536,11.9A6.9,6.9,0,0,1,13.279,3.391,6.807,6.807,0,0,1,15.3,8.252a6.906,6.906,0,0,1-6.909,6.875M14.271,2.4A8.444,8.444,0,0,0,8.377,0a8.269,8.269,0,0,0-7.2,12.406L0,16.691l4.406-1.149a8.389,8.389,0,0,0,3.971,1.006h0a8.3,8.3,0,0,0,8.31-8.273,8.2,8.2,0,0,0-2.431-5.85" fill="#24aa20"/>
</svg>
