<svg xmlns="http://www.w3.org/2000/svg" width="60" height="60" viewBox="0 0 60 60">
  <path id="Icon_ionic-logo-whatsapp" data-name="Icon ionic-logo-whatsapp" d="M34.919,4.375A29.342,29.342,0,0,0,5.464,33.6,28.925,28.925,0,0,0,9.691,48.695L4.375,64.375l16.308-5.181A29.5,29.5,0,0,0,64.375,33.6,29.342,29.342,0,0,0,34.919,4.375ZM49.566,44.7c-.693,1.718-3.827,3.286-5.21,3.358s-1.421,1.071-8.952-2.2S23.344,34.63,22.987,34.118s-2.917-4.158-2.779-7.829a8.346,8.346,0,0,1,2.867-6.124,2.885,2.885,0,0,1,2.04-.859c.593-.01.977-.018,1.416,0s1.1-.092,1.667,1.425,1.934,5.244,2.109,5.624a1.365,1.365,0,0,1,.014,1.309,5.115,5.115,0,0,1-.8,1.216c-.393.422-.827.943-1.177,1.265-.391.357-.8.746-.388,1.509a22.54,22.54,0,0,0,3.988,5.322A20.551,20.551,0,0,0,37.85,40.9c.739.4,1.179.358,1.637-.124s1.961-2.109,2.491-2.835,1.026-.586,1.707-.312,4.307,2.217,5.045,2.618,1.231.607,1.408.924A6.185,6.185,0,0,1,49.566,44.7Z" transform="translate(-4.375 -4.375)" fill="#56b527"/>
</svg>
