<svg xmlns="http://www.w3.org/2000/svg" xmlns:xlink="http://www.w3.org/1999/xlink" width="366" height="475" viewBox="0 0 366 475">
  <defs>
    <clipPath id="clip-path">
      <rect id="Mask_shape" data-name="Mask shape" width="366" height="475" transform="translate(851 162)" fill="none" stroke="#707070" stroke-width="1"/>
    </clipPath>
    <radialGradient id="radial-gradient" cx="0.5" cy="0.5" r="0.675" gradientTransform="translate(0 0)" gradientUnits="objectBoundingBox">
      <stop offset="0" stop-color="#fff"/>
      <stop offset="1" stop-color="#d4d4d4"/>
    </radialGradient>
    <linearGradient id="linear-gradient" x1="-13.103" y1="13.528" x2="-13.014" y2="12.487" gradientUnits="objectBoundingBox">
      <stop offset="0"/>
      <stop offset="1" stop-color="#090909"/>
    </linearGradient>
    <linearGradient id="linear-gradient-2" x1="-189.695" y1="29.885" x2="-190.631" y2="29.867" gradientUnits="objectBoundingBox">
      <stop offset="0" stop-color="#1a1a1a"/>
      <stop offset="0.188" stop-color="#333"/>
      <stop offset="0.329" stop-color="#241205"/>
      <stop offset="0.71" stop-color="#693513"/>
      <stop offset="1" stop-color="#60310f"/>
    </linearGradient>
    <linearGradient id="linear-gradient-3" x1="-192.991" y1="44.499" x2="-193.928" y2="44.473" xlink:href="#linear-gradient-2"/>
    <linearGradient id="linear-gradient-4" x1="-190.397" y1="31.566" x2="-190.63" y2="31.584" xlink:href="#linear-gradient-2"/>
    <linearGradient id="linear-gradient-5" x1="-30.279" y1="4.546" x2="-31.251" y2="3.588" gradientUnits="objectBoundingBox">
      <stop offset="0" stop-color="#1a1a1a"/>
      <stop offset="0.268" stop-color="#241205"/>
      <stop offset="0.686" stop-color="#783c14"/>
      <stop offset="1" stop-color="#612d07"/>
    </linearGradient>
    <linearGradient id="linear-gradient-6" x1="0.22" x2="0.73" y2="0.705" gradientUnits="objectBoundingBox">
      <stop offset="0" stop-color="#3a3a3a"/>
      <stop offset="1" stop-color="#d1d1d1"/>
    </linearGradient>
    <linearGradient id="linear-gradient-7" x1="-37.648" y1="49.367" x2="-37.618" y2="49.273" gradientUnits="objectBoundingBox">
      <stop offset="0" stop-color="#888"/>
      <stop offset="1" stop-color="#d1d1d1"/>
    </linearGradient>
    <linearGradient id="linear-gradient-8" x1="0.599" y1="0.427" x2="1" y2="0.625" gradientUnits="objectBoundingBox">
      <stop offset="0" stop-color="#0273ba"/>
      <stop offset="1" stop-color="#013a5d"/>
    </linearGradient>
    <clipPath id="clip-path-2">
      <rect id="Rectangle_58" data-name="Rectangle 58" width="35.661" height="78.083"/>
    </clipPath>
    <clipPath id="clip-path-3">
      <rect id="Rectangle_59" data-name="Rectangle 59" width="50.196" height="108.167"/>
    </clipPath>
  </defs>
  <g id="mockup" transform="translate(-851 -162)" clip-path="url(#clip-path)">
    <ellipse id="Ellipse_16" data-name="Ellipse 16" cx="180.673" cy="22.647" rx="180.673" ry="22.647" transform="translate(856.166 591.957)" fill="#e1f1ff"/>
    <path id="Star" d="M-541.924,91.359l11.831-4.056,7.437,9.465-.338-11.831,11.831-4.056-12-3.38-.507-12-6.591,9.972L-542.6,71.922l7.775,9.465Z" transform="translate(1626.165 240.463)" fill-rule="evenodd" fill="url(#radial-gradient)"/>
    <path id="Star_biggest" data-name="Star biggest" d="M-646.2,18.2l18.253-2.873,8.451,15.887,2.873-17.746L-598.2,10.59l-16.732-8.113,3.042-17.577L-625.074-2.424l-16.563-8.282,8.451,15.887Z" transform="translate(1554.669 184.84)" fill-rule="evenodd" fill="url(#radial-gradient)"/>
    <g id="Left_hand" data-name="Left hand">
      <path id="Thumb" d="M-629.118,8.448a4.139,4.139,0,0,0,.676,2.028c.507.507,2.535,1.859,2.873,2.873s1.859,2.7,1.183,3.042-3.718-1.69-4.732-2.2c-1.014-.676-1.014-2.028-1.352-2.873-.169-.676-.169-4.394,1.352-2.873Z" transform="translate(1565.474 200.841)" fill="#deaa76" fill-rule="evenodd"/>
      <path id="left_hand-2" data-name="left hand" d="M-609.643,32.73a34.786,34.786,0,0,1-5.07-4.9,6.44,6.44,0,0,1-1.69-3.38c-.169-1.521-2.028-7.775-3.887-9.3-1.859-1.69-7.1-3.718-7.775-5.07a17.2,17.2,0,0,1-.845-1.859s-4.225-.507-3.211,1.521a11.206,11.206,0,0,1,1.521,3.211c.169.845.845,1.521,0,1.69-.676.338-2.028,1.183-2.028,1.859a1.835,1.835,0,0,1-.676,1.521c-.338.169-1.014.507-1.014,1.014,0,.676-.676.845-1.183,1.014a1.677,1.677,0,0,0-.845,2.2,8.955,8.955,0,0,0,3.718,4.9,33.263,33.263,0,0,1,7.267,5.577,16.8,16.8,0,0,0,4.056,5.07c1.183.676,1.352,3.042,3.718,1.352,2.028-2.028,7.943-6.422,7.943-6.422Z" transform="translate(1561.379 200.897)" fill="#e8b179" fill-rule="evenodd"/>
      <path id="Shadow" d="M-614.623,30.486a32.163,32.163,0,0,1-4.9-4.732c-.507-.676-.845-1.183-1.183-1.69-1.014-.676-2.028-5.239-2.873-7.775-.845-2.366-2.366-3.042-2.873-3.887-.338-.845-3.887-2.028-3.211-1.183a27.669,27.669,0,0,0,3.38,4.394c1.183,1.014,1.183,2.873,3.211,7.436a20.528,20.528,0,0,0,6.76,7.944,1.172,1.172,0,0,0,1.69-.507Z" transform="translate(1566.021 202.803)" fill-rule="evenodd" opacity="0.08"/>
      <path id="Highlight" d="M-632.122,9.448h0a11.213,11.213,0,0,1,1.521,3.211c.169.845.845,1.521,0,1.69-.676.338-2.028,1.183-2.028,1.859a1.835,1.835,0,0,1-.676,1.521c-.338.169-1.014.507-1.014,1.014,0,.676-.676.845-1.183,1.014a1.677,1.677,0,0,0-.845,2.2,8.954,8.954,0,0,0,3.718,4.9,33.266,33.266,0,0,1,7.267,5.577,16.8,16.8,0,0,0,4.056,5.07c.676.338,1.014,1.352,1.521,1.69.676.338,3.887-4.056,4.394-5.408s-2.535.169-3.549,0a40.417,40.417,0,0,1-3.549-2.2,2.546,2.546,0,0,1-1.183-3.211A2.8,2.8,0,0,0-623.84,25c-1.014-1.014-1.352.169-1.69,1.014s-1.352.169-2.366-.507c-.845-.676-1.183.338-2.7-.338-1.69-.676-2.535-3.211-2.7-4.056-.169-.507.338-.507.845-.507a8.574,8.574,0,0,0,2.7,1.521c1.69.676,1.352-1.521.676-2.028a6,6,0,0,0-1.521-.676c0-.169-.169-.169-.169-.338-.676-.676-.845-.338-.845-.845,0-.338.169-.507.507-.676a24.17,24.17,0,0,1,2.535,1.859c.676.845,3.211,1.352,2.366,0a18.1,18.1,0,0,0-3.211-3.042c.169-.169.169-.338.169-.676a.621.621,0,0,1,.169-.507,15.521,15.521,0,0,0,2.535,1.859c.845.676,2.7.169,2.366-1.014A6.633,6.633,0,0,0-627.22,13a3.294,3.294,0,0,0,.169-1.352c-.169-.338-.338-.845-.507-1.183a5.849,5.849,0,0,1-1.69-1.859c-.507-1.183-1.014-.676-1.521-.338-.507,1.014-.845,1.183-1.352,1.183Z" transform="translate(1561.38 200.686)" fill="#fff" fill-rule="evenodd" opacity="0.15"/>
    </g>
    <g id="Right_leg" transform="translate(1027.238 436.641)">
      <path id="Path_491" d="M-696.4-52.124s9.634,33.633,9.634,39.887,4.394,36,6.253,45.464c2.028,9.465,6.592,23.493,5.577,28.056-1.014,4.9-2.7,9.465-3.38,13.69s1.352,5.746-.169,9.127c-1.69,3.549,19.774-11.155,20.619-19.267,1.014-8.282,1.352,1.69-1.014-13.014-2.366-14.535-2.028-26.535-.338-32.619,1.69-5.915.338-21.3-2.7-29.408-3.042-8.282-4.394-16.394-3.042-21.3s-2.028-33.3-2.028-33.3-27.38,5.746-29.408,12.676Z" transform="translate(696.4 64.8)" fill="#deaa76" fill-rule="evenodd"/>
      <path id="Path_492" d="M-677.561,40.456h0v.338h0v.338l.169.338v.169h0v.169h0v.169h0v1.014h0c1.014,4.225,1.521,7.775,1.014,9.634-.169.507-.169,1.183-.338,1.69.507.169.507,1.014.676,1.521a1.872,1.872,0,0,0,2.028,1.521c.169,0,.338-.169.507-.169a5.359,5.359,0,0,0,2.535-3.211c.338-1.014-1.183-2.535-2.028-3.887-.845-1.521-1.69,0-2.028.507-.507.507-.338-2.366-.338-3.38a21.711,21.711,0,0,0-1.183-5.746c-.338-.676-.507-1.014-.845-1.183a29.792,29.792,0,0,1-1.183-6.76c.338-3.211-1.69-11.493-2.7-14.366-.845-2.873-1.69-16.394-.676-20.112s.507-19.774-1.014-24.338a106.827,106.827,0,0,1-3.042-10.479,120.986,120.986,0,0,0-3.211-13.521c-1.521-3.38-4.056-3.042-5.577-3.211,2.028,9.8,6.591,26.028,6.591,31.436s4.394,36,6.254,45.464c1.521,5.239,3.211,10.986,4.394,16.056Z" transform="translate(697.504 73.288)" fill-rule="evenodd" opacity="0.05"/>
      <path id="Path_493" d="M-671.306,17.4s-9.8,11.831-13.521,13.014c-7.606,2.535-8.789,4.9-7.1,5.577,1.859.845,4.056-.507,10.479-4.056,6.591-3.549,7.267-4.563,9.3-6.76,2.366-1.859,4.563-7.436.845-7.775Z" transform="translate(699.023 121.527)" fill="#deaa76" fill-rule="evenodd"/>
      <path id="Path_497" d="M-671.954,10.648a41.2,41.2,0,0,1,1.183-7.774c1.69-5.915.338-21.3-2.7-29.408a59.312,59.312,0,0,1-3.38-14.366c-2.7,4.056-3.38,10.817-.169,14.7,6.591,8.113,5.07,36.844,5.07,36.844Z" transform="translate(708.291 81.294)" fill="#deaa76" fill-rule="evenodd"/>
      <path id="Path_499" d="M-675.56-56.138s.507,14.873,0,17.577-4.394,2.2-6.422,3.211c-2.028,1.183-6.591-9.465-6.929-10.986-.169-1.521-1.521-4.9-.676-7.1s12-5.07,14.028-2.7Z" transform="translate(700.911 70.166)" fill="#333" fill-rule="evenodd" opacity="0.07"/>
      <path id="Path_500" d="M-679.942-56.155s.507,14.873,0,17.577c-.338,1.521-1.352,1.859-2.7,2.2h0c-2.366-1.352.845-1.69,1.014-3.549.338-2.028-.676-14.873-.676-14.873A2.437,2.437,0,0,1-681.8-57a2.714,2.714,0,0,1,1.859.845Z" transform="translate(705.294 70.183)" fill-rule="evenodd" opacity="0.03"/>
    </g>
    <path id="Path_501" d="M-575.3,150.164s-13.859-7.436-19.1-13.183C-599.636,131.065-575.467,136.3-575.3,150.164Z" transform="translate(1589.907 288.135)" fill-rule="evenodd"/>
    <g id="Left_leg" transform="translate(991.866 421.25)">
      <path id="Path_502" d="M-675.873,2.065s-3.718,1.859-6.591,3.211a30.488,30.488,0,0,1-3.549,1.352c-1.352-.169-1.352,5.07,5.577,2.535s7.267-4.394,7.437-5.577-.845-2.873-2.366-1.859l-.507.338Z" transform="translate(702.972 110.29)" fill="#deaa76" fill-rule="evenodd"/>
      <path id="Path_503" d="M-687.995-64.208s-10.479,5.577-7.944,16.732c2.7,11.155,17.408,37.858,22.14,49.689,4.563,11.831,10.141,27.042,7.437,34.478-1.69,4.732-3.211,9.465-4.563,14.366-.338,1.183,17.07-5.577,19.436-10.817s6.422-8.958,4.732-12.169c-5.408-11.155-7.437-21.633-8.789-33.8A74.019,74.019,0,0,0-658.08-20.6c-2.028-6.084-6.254-16.563-11.155-21.126,0,0-1.69-2.873.845-4.056s2.535-5.239,1.521-7.1c-1.183-1.69-15.38-14.366-21.126-11.324Z" transform="translate(696.334 64.678)" fill="#deaa76" fill-rule="evenodd"/>
      <path id="Path_504" d="M-692.008-62.7c-2.366,2.366-5.239,7.267-3.211,15.718s17.746,36.675,22.309,48.506,8.282,27.718,6.084,33.633c-2.366,6.084-2.366,9.127-3.718,11.493.338.338,1.014-.169,4.394-4.056,1.352-1.521.845-3.211,2.028-5.07s4.225-6.591,3.718-7.605a4.207,4.207,0,0,1,.169-4.225c1.014-1.69.845-2.535,0-3.38a12.274,12.274,0,0,1-2.366-5.746c-.507-2.2-4.9-19.436-8.112-22.985s-1.859-25.014-10.141-32.957-5.916-12.507-4.394-15.042-.169-1.69-1.014-4.225c-.845-1.521-3.718-3.211-5.746-4.056Z" transform="translate(696.629 66.043)" fill-rule="evenodd" opacity="0.05"/>
    </g>
    <path id="Path_506" d="M-511.661,105.139s7.1,8.282,2.2,21.633-17.07,17.239-20.112,31.1-1.183,28.9-3.042,32.619a6.922,6.922,0,0,1-4.563,2.535c-4.9,1.521-11.831,1.69-14.028,2.366-3.211,1.014-6.253,1.014-11.324-4.732-5.239-5.577-22.648-25.859-31.1-26.7-8.451-.676,18.422-19.1,21.126-21.3s5.577-4.9,4.732-13.69a31.425,31.425,0,0,0-1.014-5.746c-1.352-6.084-3.887-12-1.183-17.577,3.549-7.267.845-8.451,13.69-10.479,12.676-1.352,38.7,5.915,44.619,9.972Z" transform="translate(1589.817 260.823)" fill-rule="evenodd" fill="url(#linear-gradient)"/>
    <path id="Path_507" d="M-510.033,54.721s-3.887-7.944-5.07-7.944c-1.352,0-24.507,1.352-24.507,1.352s-1.69-1.69-3.211,1.352c-1.521,2.873-.676,3.718-3.211,4.225s-5.915,0-6.254,1.183-1.014,3.211-2.873,2.7-9.465-3.042-11.493-2.366-4.394-1.859-6.084-1.183c-1.859.845-14.028-7.775-16.563-7.605s-19.774-17.408-20.957-17.577c-1.183-.338-6.254-6.591-7.437-6.76s-10.141,4.9-9.8,9.127c0,0,.507,2.366,5.239,6.084a12.591,12.591,0,0,1,2.2,4.225c.676,2.2,5.07,5.239,6.76,6.929a47.447,47.447,0,0,1,5.239,4.9c1.521,1.859,4.394,3.549,5.577,4.9a9.029,9.029,0,0,0,4.225,2.873,70.069,70.069,0,0,1,9.634,5.915c2.028,1.69,14.7,7.774,20.112,9.634s7.775.169,6.592,6.253-3.549,12.338,2.028,18.253c0,0,5.239,9.3,4.563,14.028a9.741,9.741,0,0,0,2.873,8.113,28.439,28.439,0,0,1,.169,8.451c-.507,4.563,1.859,6.253,1.521,12s3.38,5.577,1.521,10.817c-2.873,5.577,1.183,15.042,1.69,12.169s.507-2.2,0-4.056-.676-8.282,4.056-9.634,21.972-.676,36.675,2.535,18.422,5.915,19.775,4.9c1.521-1.183-6.761-26.366-10.817-28.225,0,0-5.07-8.282-5.915-11.493-.845-2.873,2.028-13.014,1.69-15.042s-.338-3.887,1.69-4.732,4.9,2.028,9.127,11.155c4.563,8.789,6.592,14.366,9.465,17.577s3.38,7.605,7.774,10.817,19.436,26.535,20.788,29.239,10.31-5.07,13.183-5.07-18.084-31.267-19.1-34.14a18.811,18.811,0,0,0-3.718-6.422c-1.69-1.69-4.056-5.07-5.746-6.76s-1.69-4.9-4.056-6.76c-2.2-1.859-10.817-17.408-12-21.3-1.183-4.056-3.38-12-4.9-14.7s-.169-11.324-5.239-12.845c-4.563-1.69-8.619-4.563-14.366-6.591,0-.169-.507-.338-.845-.507Z" transform="translate(1567.571 210.511)" fill="#900" fill-rule="evenodd"/>
    <path id="Path_508" d="M-511.6,106.927s-7.774.676-11.831,5.07c0,0-1.859-3.042,2.2-4.9C-517.342,105.068-513.117,104.053-511.6,106.927Z" transform="translate(1639.103 267.824)" fill-rule="evenodd"/>
    <path id="Path_509" d="M-518.706,108.616h0a11.349,11.349,0,0,1,3.887-1.69h0a1.017,1.017,0,0,0-.169-.676c-.507-.507-1.352-1.183-1.859-.676-1.014.845-2.7,2.2-1.859,3.042Z" transform="translate(1642.496 267.994)" fill="#fff" fill-rule="evenodd"/>
    <path id="Path_510" d="M-582,35.266s5.239,1.69,6.422,5.07c6.929,14.121,2.7-.338,4.225-.338s3.718.676,5.07-1.014-2.535-6.084-2.535-6.084h-9.3L-582,35.266Z" transform="translate(1598.975 217.966)" fill="#e8b179" fill-rule="evenodd"/>
    <path id="Path_511" d="M-581.4,34.969a9.626,9.626,0,0,1,2.355,1.136c4.422,2.047,5.027,1.108,7.563,1.953.676.507,1.913.291,1.575-.554a11.1,11.1,0,0,0-2.028-2.873l-5.915-.507c.169-.169-3.042,0-3.549.845Z" transform="translate(1599.389 218.77)" fill="#242424" fill-rule="evenodd"/>
    <path id="Path_512" d="M-578.365,12.5l24.338,14.028L-552,40.894l-6.592,7.267s-13.521,1.69-14.873,1.69a35.821,35.821,0,0,1-7.437.676c-3.38-.338-4.732-1.859-4.394-3.042.338-1.014.507-2.2-.169-2.535s-.169-1.859.676-2.028.507-1.014.169-1.352-2.535-2.028-1.014-2.366c1.352-.338,1.317-1.638.333-3.029-.338-.338-1.016-.578-1.178-1.028-.676-2.535,5.239-3.549,3.38-9.634-1.014-3.887,2.873-11.155,4.732-13.014Z" transform="translate(1595.847 203.887)" fill="#e8b179" fill-rule="evenodd"/>
    <path id="Path_513" d="M-585.67,26.663s-.337-.275-.5-.416.1-.2.1-.2a.989.989,0,0,1,1.049.988C-585.017,27.206-585.5,26.832-585.67,26.663Z" transform="translate(1596.217 213.181)" fill="#343434" fill-rule="evenodd"/>
    <path id="Path_514" d="M-584.4,24.08a12.075,12.075,0,0,0,.338-3.38,8.61,8.61,0,0,0,2.873,1.183c.169,0,0,.338-.169.338A9.2,9.2,0,0,0-584.4,24.08Z" transform="translate(1597.318 209.546)" fill="#fff" stroke="#000" stroke-linecap="round" stroke-linejoin="round" stroke-miterlimit="10" stroke-width="0.173" fill-rule="evenodd"/>
    <path id="Path_515" d="M-584.4,23.98a7.634,7.634,0,0,0,.169-3.38c.338.169,1.352.676,1.352.845a1.016,1.016,0,0,1,.169.676c0,.338-.169.507-.169.676A4.657,4.657,0,0,1-584.4,23.98Z" transform="translate(1597.318 209.477)" fill-rule="evenodd"/>
    <path id="Path_516" d="M-584.6,19.89v-.845a3.8,3.8,0,0,1,2.366.169h0a3.992,3.992,0,0,1,1.521,1.014c.338.338.169.845,0,.845s-.169.169-.338,0c0-.169,0-.169-.169-.338a4.96,4.96,0,0,0-1.69-.507h0a3.048,3.048,0,0,0-1.69-.338Z" transform="translate(1597.18 208.328)" fill-rule="evenodd"/>
    <path id="Path_517" d="M-585.6,34.015h0A1.022,1.022,0,0,1-586.111,33h0a2.346,2.346,0,0,1,1.352-1.183c.662-.268-.507-1.456-.507-1.456l-.676-.572s-1.061-1.3.439-1.584l.375-.106a22.4,22.4,0,0,0,1.721,2.535c.845,1.183-1.859,3.211-2.2,3.38Z" transform="translate(1595.987 214.653)" fill="#900" fill-rule="evenodd"/>
    <path id="Path_519" d="M-540.958,43.708l-1.014-.507a7.887,7.887,0,0,1-1.69-.845,20.644,20.644,0,0,0-6.422-2.2c-1.69,0-23.493.338-28.056,1.859,0,0-1.521,0-1.859-.338a3.184,3.184,0,0,1,1.352-.338c1.352-.169,8.958-1.352,11.662-1.521,2.535-.169,14.873-.676,16.563-.507s3.211.338,9.127,3.549c0,.338.338.507.338.845Z" transform="translate(1600.355 222.369)" fill="#333" fill-rule="evenodd"/>
    <path id="Path_520" d="M-542.52,43.1a45.035,45.035,0,0,0-17.07-1.859c-9.3.845-11.831-.169-15.38.507s-4.732-.845-2.873-.845c1.69,0,27.549-2.535,30.929-.338,3.211,2.028,1.859,0,4.394,2.535Z" transform="translate(1601.241 222.638)" fill-rule="evenodd"/>
    <path id="Path_521" d="M-540.958,45.858l-1.014-.507a7.887,7.887,0,0,1-1.69-.845,20.644,20.644,0,0,0-6.422-2.2c-1.69,0-23.493.338-28.056,1.859,0,0-1.859,0-1.859-.338,0-.507,1.352.507,2.873-1.69,1.521-2.028,1.859-4.056,2.366-4.563s26.2-1.69,27.042-1.352,3.549,4.563,4.056,5.408c.507,1.014.507,2.028,1.183,2.366.507.676,2.366,1.69,1.521,1.859Z" transform="translate(1600.355 220.219)" fill="#1a1a1a" fill-rule="evenodd"/>
    <path id="Path_522" d="M-564.3,61.552s3.718-17.746,1.014-25.352a66.048,66.048,0,0,1,.507,8.282C-563.117,46.341-563.962,60.031-564.3,61.552Z" transform="translate(1611.189 220.243)" fill-rule="evenodd" fill="url(#linear-gradient-2)"/>
    <path id="Path_618" d="M-560.4,36.008s3.718-12.169,1.014-17.408a31.12,31.12,0,0,1,.507,5.577c-.338,1.352-1.183,10.648-1.521,11.831Z" transform="translate(1613.881 208.097)" fill-rule="evenodd" fill="url(#linear-gradient-3)"/>
    <path id="Path_617" d="M-567.21,62.328s-10.31-17.07-7.605-26.028a77.73,77.73,0,0,0,1.014,8.789C-572.618,46.779-568.224,60.807-567.21,62.328Z" transform="translate(1603.621 220.312)" fill-rule="evenodd" fill="url(#linear-gradient-4)"/>
    <path id="Hair" d="M-581.655,14.593a12.388,12.388,0,0,1,5.915-4.225,22.481,22.481,0,0,1,7.606-1.352c10.479-.338,10.31,1.69,13.352,1.859,2.873.169,4.563-.169,4.732,1.69s-.338,2.873,2.028,4.563c2.366,1.521,4.9,6.422,4.563,8.451s-2.2,12-.845,12.676,4.225,1.183,4.732,4.225c.507,2.873-1.014,7.774-4.056,7.605-2.873-.169-3.549,4.225-4.9,4.225s-5.07,19.436-2.366,25.521a9.209,9.209,0,0,1-.845,8.113,21.547,21.547,0,0,1-1.183,2.028,5.923,5.923,0,0,1-2.366,4.732c-.676.507-.507.169-.169-.169a5.028,5.028,0,0,0,1.69-3.38c-.845,1.183-1.69,2.2-2.535,3.211.507,3.042-2.028,4.9-1.183,3.549a3.533,3.533,0,0,0,.676-2.873l-.169.169c0,.845,0,1.352-.169,1.521s-.169-.169-.338-1.014l-.845,1.014c-2.366,2.7-5.408-18.422-8.281-31.1-1.014-4.056-1.859-7.267-2.873-8.451-3.718-4.9-1.521-4.9-1.859-6.929a31.318,31.318,0,0,1,.338-7.944,11.255,11.255,0,0,0,.676-5.239,7.837,7.837,0,0,0-2.028-3.887c-4.732-3.042-3.718-1.521-6.254-5.915-1.69-3.042-5.408-8.62-3.211-11.662a2.146,2.146,0,0,1,.169-1.014Z" transform="translate(1598.629 201.457)" fill-rule="evenodd" fill="url(#linear-gradient-5)"/>
    <g id="Hair_strands" transform="translate(1015.712 211.406)">
      <path id="Path_525" d="M-671.417-46.7c-.169,3.211-.676,6.422-1.183,9.8" transform="translate(712.825 77.138)" fill="none" stroke="#331807" stroke-linecap="round" stroke-linejoin="round" stroke-miterlimit="10" stroke-width="0.347"/>
      <path id="Path_526" d="M-681.5-64a25.074,25.074,0,0,1,6.422,3.887m2.873,2.873a23.576,23.576,0,0,1,4.225,8.789m.845,12.676a83.251,83.251,0,0,1-1.183,11.155" transform="translate(706.682 65.199)" fill="none" stroke="#331807" stroke-linecap="round" stroke-linejoin="round" stroke-miterlimit="10" stroke-width="0.347"/>
      <path id="Path_527" d="M-691-64.693c6.422-.169,11.662,1.014,14.873,3.211,8.958,4.225,12.676,11.324,13.521,19.943m.169,5.577q-.253,6.084-1.014,12.169" transform="translate(700.127 64.709)" fill="none" stroke="#331807" stroke-linecap="round" stroke-linejoin="round" stroke-miterlimit="10" stroke-width="0.347"/>
      <path id="Path_528" d="M-693.2-63.879c7.605-.338,14.2,1.014,17.915,4.056,13.859,7.267,13.859,21.3,11.493,37.858m-4.056,27.38c-.169,1.859-.338,3.887-.338,5.577" transform="translate(698.608 65.247)" fill="none" stroke="#331807" stroke-linecap="round" stroke-linejoin="round" stroke-miterlimit="10" stroke-width="0.347"/>
      <path id="Path_529" d="M-694.5-63.064c7.943-.507,15.38,1.183,19.1,4.9,13.014,7.944,12.676,21.3,10.479,37.182m-3.042,22.647a95.171,95.171,0,0,0-.507,9.8v1.521" transform="translate(697.711 65.784)" fill="none" stroke="#331807" stroke-linecap="round" stroke-linejoin="round" stroke-miterlimit="10" stroke-width="0.347"/>
      <path id="Path_530" d="M-695.3-62.369c8.281-.507,16.056,1.521,19.605,5.915,19.774,13.521,5.746,39.042,6.592,67.6l.169,2.535" transform="translate(697.159 66.272)" fill="none" stroke="#331807" stroke-linecap="round" stroke-linejoin="round" stroke-miterlimit="10" stroke-width="0.347"/>
      <path id="Path_531" d="M-695.8-61.685c8.281-.338,16.225,1.69,19.774,6.929,18.253,14.366,4.563,37.689,6.253,65.914l.338,3.549m0,.338.169,1.183" transform="translate(696.814 66.772)" fill="none" stroke="#331807" stroke-linecap="round" stroke-linejoin="round" stroke-miterlimit="10" stroke-width="0.347"/>
      <path id="Path_532" d="M-696.2-61c8.282-.169,16.225,2.028,19.605,8.113,16.732,14.873,3.38,36,5.915,64.055.169,1.352.338,2.7.507,4.225m0,1.014v.507" transform="translate(696.538 67.266)" fill="none" stroke="#331807" stroke-linecap="round" stroke-linejoin="round" stroke-miterlimit="10" stroke-width="0.347"/>
      <path id="Path_533" d="M-696.4-60.3c7.943.169,15.887,2.7,18.929,8.958,15.042,15.718,2.2,34.478,5.577,62.365.169,1.521.507,3.042.676,4.9m.338,1.014h0" transform="translate(696.4 67.752)" fill="none" stroke="#331807" stroke-linecap="round" stroke-linejoin="round" stroke-miterlimit="10" stroke-width="0.347"/>
      <path id="Path_534" d="M-696.3-59.6c7.605.507,15.38,3.211,18.084,10.141,13.521,16.394.845,32.957,5.239,60.675.338,1.859.676,4.225,1.014,6.591" transform="translate(696.469 68.235)" fill="none" stroke="#331807" stroke-linecap="round" stroke-linejoin="round" stroke-miterlimit="10" stroke-width="0.347"/>
      <path id="Path_535" d="M-696.1-58.8c7.437.845,14.535,3.887,16.9,11.155,12,17.239-.338,31.436,4.9,58.816.507,2.028.845,4.563,1.352,6.929" transform="translate(696.607 68.788)" fill="none" stroke="#331807" stroke-linecap="round" stroke-linejoin="round" stroke-miterlimit="10" stroke-width="0.347"/>
      <path id="Path_536" d="M-695.9-58.1c7.1,1.183,13.521,4.563,15.718,11.831,10.31,17.746-1.183,29.746,4.394,56.281" transform="translate(696.745 69.271)" fill="none" stroke="#331807" stroke-linecap="round" stroke-linejoin="round" stroke-miterlimit="10" stroke-width="0.347"/>
      <path id="Path_537" d="M-695.5-57.1c6.422,1.69,12.169,5.07,14.2,12.507,6.76,14.028,1.859,22.985,1.859,37.858" transform="translate(697.021 69.961)" fill="none" stroke="#331807" stroke-linecap="round" stroke-linejoin="round" stroke-miterlimit="10" stroke-width="0.347"/>
      <path id="Path_538" d="M-694.9-56.1c5.746,1.859,10.817,5.746,12.338,13.014,4.563,11.662,2.2,19.1,1.352,28.9" transform="translate(697.435 70.651)" fill="none" stroke="#331807" stroke-linecap="round" stroke-linejoin="round" stroke-miterlimit="10" stroke-width="0.347"/>
      <path id="Path_539" d="M-694.2-54.9a16.641,16.641,0,0,1,10.31,13.183c2.7,9.3,1.859,15.38,1.014,21.971" transform="translate(697.918 71.479)" fill="none" stroke="#331807" stroke-linecap="round" stroke-linejoin="round" stroke-miterlimit="10" stroke-width="0.347"/>
      <path id="Path_540" d="M-693.4-53.4a20.938,20.938,0,0,1,3.718,3.042m3.718,6.084a23.978,23.978,0,0,1,.845,3.718,48.659,48.659,0,0,1,.676,16.394" transform="translate(698.47 72.514)" fill="none" stroke="#331807" stroke-linecap="round" stroke-linejoin="round" stroke-miterlimit="10" stroke-width="0.347"/>
      <path id="Path_541" d="M-689.3-46.2c.169,1.014.338,1.859.507,2.873a48.911,48.911,0,0,1,.338,12.169" transform="translate(701.3 77.483)" fill="none" stroke="#331807" stroke-linecap="round" stroke-linejoin="round" stroke-miterlimit="10" stroke-width="0.347"/>
    </g>
    <path id="Path_542" d="M-573.013,23.912c.676,1.69.507,4.9-1.014,5.915s-2.2,2.7-3.718,2.366-.845-1.014-1.183-1.69a6.716,6.716,0,0,1,.338-4.056c.507-.338.507-1.859.507-2.366C-578.083,20.7-573.351,22.56-573.013,23.912Z" transform="translate(1600.973 210.56)" fill="#deaa76" fill-rule="evenodd"/>
    <path id="Path_543" d="M-577.812,23s5.916,1.69.845,6.422c0,0-.507.845-.845.507-.507-.338.338-1.183.845-1.521s1.014-1.859.338-2.028C-577.643,26.042-578.995,24.014-577.812,23Z" transform="translate(1601.547 211.134)" fill="#cc9c6c" fill-rule="evenodd"/>
    <path id="Path_544" d="M-576.4,25.584a2.431,2.431,0,0,1-1.69-1.69c-.169-.507,1.014-.676,1.183-.169a1.123,1.123,0,0,0,.676.845c.169.169.507,1.014-.169,1.014Z" transform="translate(1601.659 211.423)" fill="#b58b62" fill-rule="evenodd"/>
    <path id="Path_545" d="M-578.1,23.014a4.484,4.484,0,0,1,3.042,1.859,3.974,3.974,0,0,1-.676,4.056c-1.521,1.69-2.366,2.535-1.69,2.366a7,7,0,0,0,3.042-3.211,10.4,10.4,0,0,0,.338-3.211c0-.676-3.042-3.549-4.056-1.859Z" transform="translate(1601.666 210.781)" fill="#cc9c6c" fill-rule="evenodd"/>
    <path id="Path_546" d="M-577.766,27.638a1.8,1.8,0,0,0-1.521,1.69c-.169,1.014.338,1.69,1.183,1.69a1.8,1.8,0,0,0,1.521-1.69v-.845h-.507c.169.169.169.338.169.676a1.235,1.235,0,0,1-1.014,1.183c-.507,0-.845-.676-.676-1.352a1.235,1.235,0,0,1,1.014-1.183h.169l.338-.507c-.169.338-.338.338-.676.338Z" transform="translate(1600.825 214.101)" fill="#900" fill-rule="evenodd"/>
    <path id="Path_547" d="M-577.286,24.9c-.169.676-.845,2.366-.338,2.2l.169-.169c.676-.338,1.183-1.69.169-2.028Z" transform="translate(1601.866 212.445)" fill-rule="evenodd"/>
    <path id="Path_548" d="M-547.285,53.845c-2.2.169-4.563,0-4.9.845-.338,1.183-1.014,3.211-2.873,2.7s-9.465-3.042-11.493-2.366-4.394-1.859-6.084-1.183c-1.859.845-14.028-7.775-16.563-7.605s-19.774-17.408-20.957-17.577c-1.183-.338-6.254-6.591-7.437-6.76s-10.141,4.9-9.8,9.127c0,0,.507,2.366,5.239,6.084a12.591,12.591,0,0,1,2.2,4.225c.676,2.2,5.07,5.239,6.76,6.929a47.435,47.435,0,0,1,5.239,4.9c1.521,1.859,4.394,3.549,5.577,4.9a9.028,9.028,0,0,0,4.225,2.873,70.058,70.058,0,0,1,9.634,5.915c2.028,1.69,14.7,7.774,20.112,9.634s7.605.169,6.591,6.253C-563,88.83-565.369,95.083-559.792,101c0,0,5.239,9.3,4.563,14.028a9.741,9.741,0,0,0,2.873,8.113,28.452,28.452,0,0,1,.169,8.451c-.507,4.563,1.859,6.253,1.521,12s2.535,17.07.676,22.14c-1.69,5.07,3.042-1.521,2.535-3.211-.507-1.859-.676-8.282,4.056-9.634a16.67,16.67,0,0,1,4.056-.507h0c1.014-.169,1.521-1.183,1.69-2.366-.845.169-.507,0,0-.507a12.482,12.482,0,0,0,0-3.549c-1.69,1.183-3.549,1.69-3.549,2.535a1.472,1.472,0,0,1-1.014,1.352h-.169c-1.69.845-2.366-1.014,0-2.028a25.5,25.5,0,0,0,4.732-2.535,11.335,11.335,0,0,1,0-3.38c.507-1.859-3.887-3.211-4.056-4.394s4.056-2.366,3.042-2.873-2.366-6.422,2.028-2.7c3.38,2.873,6.422,3.38,7.437,2.873-.169-.338.169-.507.338-.676-.338-1.352-15.887-11.493-15.887-11.493a10.329,10.329,0,0,1-1.183-2.366c-2.535-2.2-4.394-4.9-2.366-4.056a52.2,52.2,0,0,0,5.408,2.366h0c.169,0,.169,0,.338.169h0l.676.169c1.69.507,2.028-.169,2.028-1.014a22.723,22.723,0,0,1-8.281-5.408c-3.38-4.056-3.718-5.577-1.183-3.38,2.366,2.2,4.394,4.563,8.113,5.577a3.3,3.3,0,0,0,.169-1.352.621.621,0,0,0-.169-.507c-2.873-1.352-6.422-3.38-7.1-4.9-.845-1.69.507-.676,2.535.845a3.4,3.4,0,0,0,1.352.676c1.69.338.676-1.183,1.183-3.718-2.535-2.366-4.225-3.38-5.239-5.577-1.183-2.535-2.028-5.408,1.352-1.352a12.993,12.993,0,0,0,3.042,3.042,29.174,29.174,0,0,1-1.859-5.408,8.658,8.658,0,0,1-2.366-1.859c-.169-.676.845.169,2.028.507-.169-.845-.507-1.69-.676-2.535h0c-2.873-1.014-2.873-3.211-3.718-3.718-.845-.676-3.042-3.211-1.859-2.7l.169.169a8.121,8.121,0,0,0,4.225,2.366l.507.169c-.338-1.183-.676-2.2-1.014-3.211h0c-3.718-1.352-3.887-.676-6.592-2.7s-4.732-5.915-1.183-2.873c3.718,3.211,4.563,3.887,5.746,3.718s1.014-1.859-1.859-3.211c-1.859-.845,0-.676,1.352-.676a15.627,15.627,0,0,0-.845-1.69c-2.366.676-4.394,1.014-3.38.169a14.616,14.616,0,0,1,2.873-1.183c-.507-.845-1.014-1.69-1.352-2.2-2.2.338-2.535-.507-1.352-1.014.169-.169.338-.169.676-.338-.338-.507-.507-1.014-.845-1.521-1.014.338-1.859.338-2.028,0l-.338-.676s.845-.507,1.859-1.183c0-.507.169-1.183.169-1.69l-.338.338c-1.014,1.183-2.873,2.366-4.394-.676v-.676c.676-3.042,2.2-6.253,2.2-4.394s-2.028,7.774.845,5.07c2.873-2.535,2.535-4.225,3.549-6.084.507-1.183,1.352-1.69,1.69-1.69,1.014-1.014,4.394-1.352,7.437-1.521-.338-.338,0-.676.676-1.014a4.089,4.089,0,0,1-.338-4.563c-.169,0-.338.169-.507.169-.507.676-2.366.676-2.366.338Zm-38.2,3.549c-.507-1.521-1.352-3.042-.507-3.718s1.69-1.69,2.535-1.69c1.014-.169,3.042-1.014,3.211-.169s-1.183,1.859-2.366,1.859c-1.014.169-1.183,3.042-2.873,3.718ZM-569.932,72.6A16.521,16.521,0,0,1-574.5,61.957c-.169-6.591,1.183-6.253,2.2-6.422s1.352,1.69.507,3.38a10.317,10.317,0,0,0,0,7.775c1.352,2.535,3.719,6.084,1.859,5.915Zm-5.408-15.549a7.466,7.466,0,0,0-.845,6.253,8.141,8.141,0,0,1,.338,4.9c-.338,1.014-.507,1.352,0,1.69.507.507-.676,2.366-1.859,0a23.7,23.7,0,0,1-1.014-8.451c.169-1.183,1.183-5.746,3.211-6.253,2.2-.338.169,1.859.169,1.859Zm-6.591,3.38c-.676.676-.507,1.521-1.014,2.366-.507,1.014-.169,2.366.845,1.521.845-.845,2.2-4.056.169-3.887Zm-9.8-1.183a21.77,21.77,0,0,0,2.873-2.7c.338-.676,1.014-4.225,0-2.535-1.183,1.69-1.859,2.873-3.042,3.38s-1.352,3.042-.676,3.211.845-1.352.845-1.352ZM-616.917,31.2a8.515,8.515,0,0,0-2.535,3.38c-.338,1.352-1.352-.507.169-2.535,1.352-2.028,5.578-4.9,2.366-.845Zm22.479,22.478c-1.183,1.183-2.2,2.2-2.366-1.183s1.521-4.056,2.366-2.873c.845,1.014.676,1.014.676,2.2A8.236,8.236,0,0,1-594.439,53.676Zm2.535.676a4.148,4.148,0,0,1,2.873-1.859c1.859,0,2.028,0,3.211-1.183s1.352-3.042-1.014-1.521a7.5,7.5,0,0,1-3.718,1.69c-1.014.338-3.549,3.042-1.352,2.873Zm-10.648-9.972a7.47,7.47,0,0,1-1.859,4.056c-1.69,1.69-1.69.507-1.014-1.521s1.69-3.887,2.535-4.225c1.014-.169,2.028,1.014.338,1.69Zm37.013,17.577s.169,4.056.845,1.183-.507-8.451-1.183-7.267c-.338,1.352.676,3.38.338,6.084Zm-50.2-26.7c-.845,1.69-2.028,1.521-1.69,0s.676-.845,1.183-2.2,1.183-2.7,1.521-2.028a19.22,19.22,0,0,1-1.014,4.225Zm7.1,6.422c1.521-1.521,2.535-1.521,2.2-3.718,0,.169-.338.338-.845.845-1.859,1.352-4.394,1.69-5.239,1.014a6.07,6.07,0,0,1-.507-4.225c.338-1.69,1.859-1.859,2.028,0s-1.014,4.563,1.69,3.38c1.859-.845,3.042-1.183,3.042-1.014h0c-.338-2.2-.169-2.366-1.859-2.366s.169-2.366,2.366-.845,5.239,3.38,6.253,5.239c.845,1.69,2.366,2.535,5.07,4.394,2.535,1.69,1.521,1.69.845,2.7s-2.873.676-3.211,1.183.338-.169,0-1.352c-.338-1.352-.676-1.014-1.69-1.521.169.169.169.507-.169,1.352A12.2,12.2,0,0,0-601.03,50.8c-.169,1.014-2.028-.338-.676-2.366a6.661,6.661,0,0,1,3.211-2.873c-1.014-.338-2.366-.169-2.028-1.69s-.845-2.873-1.521-2.535-2.535,1.014-2.7,1.859-.169,2.7-1.521,2.028a3.381,3.381,0,0,1-2.366-3.549Zm-5.915-2.2c0,.676.169,2.366-.845,2.535-1.014.338-1.521-1.183-1.183-2.028.338-1.014,1.352-2.028,2.028-.507Z" transform="translate(1567.64 210.373)" fill="#b3b3b3" fill-rule="evenodd" opacity="0.11"/>
    <path id="Path_551" d="M-568.344,44.363s-1.859.507-3.042.845a13.045,13.045,0,0,1-6.254,0c-3.042-.676-.338-1.69,1.521-1.69,1.859-.338,8.113-.676,7.775.845Z" transform="translate(1601.037 225.094)" fill-rule="evenodd" opacity="0.07"/>
    <path id="Path_552" d="M-586.477,53.115s6.929-4.563,9.127-3.887c2.366.676,1.183,1.014,4.563.676s3.549-1.69,4.563,1.69c1.183,3.211,3.887,11.324,5.07,12.845s2.366,4.732,3.718,5.746c1.183,1.183-.338,3.211-6.592.169-6.084-3.042-7.774-2.028-11.324-3.549-3.718-1.352-3.887-.676-6.591-2.7s-4.732-5.915-1.183-2.873c3.718,3.211,4.563,3.887,5.746,3.718s1.014-1.859-1.859-3.211c-2.7-1.183,2.366-.338,2.535-1.183s1.859-2.366-1.014-1.69c-2.7.845-5.746,1.352-4.563.507s5.746-1.69,5.577-2.7c-.169-1.183.169-1.69-2.873-.845-3.211.845-3.887,0-2.535-.676s4.056-1.183,4.563-1.69c.338-.507.845-2.028-1.352-1.352-2.2.845-5.07,1.69-5.408,1.183l-.169-.169Z" transform="translate(1595.508 229.187)" fill-rule="evenodd" opacity="0.03"/>
    <g id="_2261232279728" transform="translate(947.569 239.499)" opacity="0.07">
      <path id="Path_553" d="M-591.221,22.738c1.183-.676,2.366-1.352,3.38-1.859a24.852,24.852,0,0,1-1.69-3.718c-.338-1.69-2.2-1.521-2.535-2.366s1.183-1.183,1.521-2.028c.507-1.183-2.2.676-3.042-.338s-3.38-1.521-3.887-2.028c-2.028.845.338,4.563,1.352,5.408a6.266,6.266,0,0,1,2.2,2.873,8.329,8.329,0,0,0,2.366,4.056c.169-.169.169-.169.338,0Z" transform="translate(764.088 116.549)" fill="#333" fill-rule="evenodd"/>
      <path id="Path_554" d="M-675.546-45.572c-.507-1.521-1.352-3.042-.507-3.718s1.69-1.69,2.535-1.69c1.014-.169,3.042-1.014,3.211-.169s-1.183,1.859-2.366,1.859c-1.014.169-1.183,3.042-2.873,3.718Z" transform="translate(710.162 73.819)" fill="#333" fill-rule="evenodd"/>
      <path id="Path_555" d="M-664.831-32.026a16.522,16.522,0,0,1-4.563-10.648c-.169-6.591,1.183-6.253,2.2-6.422s1.352,1.69.507,3.38a10.315,10.315,0,0,0,0,7.775c1.352,2.535,3.719,6.084,1.859,5.915Z" transform="translate(714.996 75.484)" fill="#333" fill-rule="evenodd"/>
      <path id="Path_556" d="M-668.5-47.312a7.465,7.465,0,0,0-.845,6.253,8.141,8.141,0,0,1,.338,4.9c-.338,1.014-.507,1.352,0,1.69s-.676,2.366-1.859,0a23.7,23.7,0,0,1-1.014-8.451c.169-1.183,1.183-5.746,3.211-6.253,2.2-.507.169,1.859.169,1.859Z" transform="translate(713.259 75.39)" fill="#333" fill-rule="evenodd"/>
      <path id="Path_557" d="M-673.291-46.09c-.676.676-.507,1.521-1.014,2.366-.507,1.014-.169,2.366.845,1.521.845-1.014,2.2-4.225.169-3.887Z" transform="translate(711.456 77.548)" fill="#333" fill-rule="evenodd"/>
      <path id="Path_558" d="M-679.093-44.576a21.761,21.761,0,0,0,2.873-2.7c.338-.676,1.014-4.225,0-2.535-1.183,1.69-1.859,2.873-3.042,3.38s-1.352,3.042-.676,3.211S-679.093-44.576-679.093-44.576Z" transform="translate(707.456 74.682)" fill="#333" fill-rule="evenodd"/>
      <path id="Path_559" d="M-682.258-53.9a12.2,12.2,0,0,0-2.366,4.056c-.169,1.014-2.028-.338-.676-2.366C-684.117-54.242-680.906-56.608-682.258-53.9Z" transform="translate(703.691 71.334)" fill="#333" fill-rule="evenodd"/>
      <path id="Path_560" d="M-693.2-62.663a8.513,8.513,0,0,0-2.535,3.38c-.338,1.352-1.352-.507.169-2.535,1.352-2.028,5.577-4.9,2.366-.845Z" transform="translate(696.381 64.713)" fill="#333" fill-rule="evenodd"/>
      <path id="Path_561" d="M-680.329-48.323c-1.183,1.183-2.2,2.2-2.366-1.183s1.521-4.056,2.366-2.873c.845,1.014.676,1.014.676,2.2A2.542,2.542,0,0,1-680.329-48.323Z" transform="translate(705.819 72.852)" fill="#333" fill-rule="evenodd"/>
      <path id="Path_562" d="M-679.314-47.7a4.148,4.148,0,0,1,2.873-1.859c1.859,0,2.028,0,3.211-1.183s1.352-3.042-1.014-1.521a7.5,7.5,0,0,1-3.718,1.69c-1.014.338-3.718,3.042-1.352,2.873Z" transform="translate(707.508 72.908)" fill="#333" fill-rule="evenodd"/>
      <path id="Path_563" d="M-684.654-55a7.469,7.469,0,0,1-1.859,4.056c-1.69,1.69-1.69.507-1.014-1.521s1.69-3.887,2.535-4.225c1.014-.169,2.028,1.014.338,1.69Z" transform="translate(702.2 70.236)" fill="#333" fill-rule="evenodd"/>
      <path id="Path_564" d="M-691.424-56.131a6.069,6.069,0,0,1-.507-4.225c.338-1.69,1.859-1.859,2.028,0s-1.014,4.563,1.69,3.38c2.7-1.352,4.056-1.352,2.2-.169-2.2,1.183-4.563,1.859-5.408,1.014Z" transform="translate(699.336 66.801)" fill="#333" fill-rule="evenodd"/>
      <path id="Path_565" d="M-661.5-38.75c.676-3.042,2.2-6.253,2.2-4.394.169,2.028-2.028,7.774.845,5.07,2.873-2.535,2.535-4.225,3.549-6.084s2.7-2.7,1.352-.507-.845,4.9,1.183,3.211,4.225-1.69,3.718-1.014c-.507.845-7.437,3.549-8.282,4.732-1.014,1.183-2.873,2.366-4.394-.676l-.169-.338Z" transform="translate(720.453 77.645)" fill="#333" fill-rule="evenodd"/>
      <path id="Path_566" d="M-656.535-30.634a8.12,8.12,0,0,0,4.225,2.366,81.461,81.461,0,0,1,15.38,4.9c5.07,2.535,9.634,3.211,13.521,5.239a23.261,23.261,0,0,1,6.084,3.887c.676.845-1.69,1.014-4.225,0-2.366-1.014-8.451-3.718-8.451-3.718l-6.422-2.028a13.506,13.506,0,0,0,4.563,3.042,34.936,34.936,0,0,1,7.605,4.563c1.69,1.183,7.605,3.549,7.774,5.07.169,1.69.676,2.028-.845,1.859s-3.211-.676-3.38-1.69c-.169-1.183,0-1.69-1.183-2.2a5.926,5.926,0,0,0-2.366-1.014,30.071,30.071,0,0,1-5.07-2.873,20.116,20.116,0,0,0,1.521,2.535c.676,1.183-2.2,1.69-3.38,0s-6.254-4.056-6.254-4.056-2.7,1.014,0,2.028,13.183,5.915,16.9,8.958S-616.142-.212-614.958.3s1.859,1.859-1.69,1.69c-3.718-.169-4.732-.676-4.225-1.69.338-1.014-1.69-3.042-4.225-4.056-2.535-1.183-6.084-4.056-7.606-4.056-1.521-.169-3.887-1.521-3.887-.338s0,2.028,2.7,2.535a10.649,10.649,0,0,1,4.9,1.69c.676.676-.845,2.028-2.2,2.028a32.273,32.273,0,0,1-5.578-1.014c-.676-.169.676-7.267-.676-7.1s-3.549.845-2.535,2.7a8.037,8.037,0,0,1,1.183,3.887c0,1.014,0,.845,2.028,1.69S-634.395-.212-634.9.8c-.507,1.183,13.69,6.929,13.69,6.929s7.943,2.2,7.943,3.211c.169,1.183,4.225,2.7,4.9,2.535s.676-.845,0-1.69,1.69-2.028,3.042,0a34.286,34.286,0,0,1,1.859,4.394c.507,1.183,3.211,1.69,3.38,2.7s-1.69.845-2.873-.169c-1.183-1.183-3.718-3.38-5.746-3.549a7.077,7.077,0,0,1-3.549-1.352V15a11.131,11.131,0,0,1-4.394-2.366c-1.69-1.69-8.958-4.732-10.479-4.9s-8.113-4.563-9.634-4.563S-648.423-.719-651.8-4.606c-3.38-4.056-3.718-5.577-1.183-3.38,2.366,2.2,4.394,4.563,8.282,5.577s4.563-.169,1.521-1.183S-651.127-7.479-651.8-9c-.845-1.69.507-.676,2.535.845,2.2,1.521,6.929,1.352,3.718-1.859s-5.07-4.056-6.422-6.591c-1.183-2.535-2.028-5.408,1.352-1.352,3.211,4.394,5.408,4.394,4.563,3.042s.169-1.352,2.366-.338c2.366,1.014,4.732.676,1.014-1.352-3.718-1.859-8.788-4.732-8.957-5.746s2.366,1.352,3.549.676c1.183-.845.676-1.69-2.366-2.7-2.873-1.014-2.873-3.211-3.718-3.718-1.352-.676-3.718-3.38-2.366-2.535Z" transform="translate(723.601 88.12)" fill="#333" fill-rule="evenodd"/>
      <path id="Path_567" d="M-653.86-13.12a44.333,44.333,0,0,0,7.774,3.211c2.7.845,11.324,3.718,14.873,6.422s7.943,4.056,9.3,5.746,10.141,5.408,11.831,8.958c1.69,3.38,3.38,5.746.507,3.38s-9.465-7.944-11.662-8.789c-2.366-.845-4.9-3.887-6.084-4.732s.169-1.014-1.859-1.014-8.112-6.084-11.662-6.084c-3.38,0-4.056.845-7.605-1.014-3.042-1.352-8.281-7.436-5.408-6.084Z" transform="translate(725.151 100.183)" fill="#333" fill-rule="evenodd"/>
      <path id="Path_568" d="M-628.117,9.3c0,2.2-3.211,2.366-8.62,1.69-5.577-.676-8.281-2.028-10.648-1.521s1.352-1.014,2.366-2.2a20.915,20.915,0,0,1,2.366-3.042,5.025,5.025,0,0,1,5.07-1.352c1.521.845,4.057,1.69,2.366,3.38s-2.873,1.521.507,3.042,7.436-1.69,6.591,0Z" transform="translate(729.661 111.226)" fill="#333" fill-rule="evenodd"/>
      <path id="Path_569" d="M-649.974,9.562c-1.69.845-2.366-1.014,0-2.028s4.225-1.69,5.239-3.38c1.183-1.69,3.38-2.535,1.352,0s-5.408,2.873-5.408,4.225a1.068,1.068,0,0,1-1.183,1.183Z" transform="translate(727.351 111.134)" fill="#333" fill-rule="evenodd"/>
      <path id="Path_570" d="M-638,6c1.014,0,1.69.676,3.042,1.183s2.028-1.014,0-2.2a5.021,5.021,0,0,1-2.873-3.718c-.676-1.859-4.056-1.859-3.042-2.873,1.183-1.014.676-1.014,2.7-.169,2.028,1.014,5.07,2.2,4.056,1.014s-4.056-1.859-5.07-2.535-2.366-.845-2.366.507-1.183,1.183-.507,1.859c.676.845,2.366,1.352,2.535,2.2s1.352,1.521.676,2.535-4.9.507-5.239,1.859,1.352,2.028,3.38,1.183A8.347,8.347,0,0,1-638,6Z" transform="translate(732.444 106.748)" fill="#333" fill-rule="evenodd"/>
      <path id="Path_571" d="M-626.679,5.718c2.028.845,5.239,1.352,6.929,3.211s3.211,2.535,1.69,0-4.732-5.915-6.929-5.408-1.69,2.2-1.69,2.2Z" transform="translate(744.449 111.767)" fill="#333" fill-rule="evenodd"/>
      <path id="Path_572" d="M-635.35-33.681c2.873,0,11.155.676,15.042,2.873s5.239.338-3.549-3.211c-8.451-3.549-14.7-4.9-11.493.338Z" transform="translate(737.909 83.73)" fill="#333" fill-rule="evenodd"/>
      <path id="Path_573" d="M-634.935-27.936s7.606.676,8.451-.676,3.042-1.859,6.084-.845c3.211,1.352,5.07.845.845-1.183-4.225-1.69-5.07-1.69-6.084-1.352s-1.859.169-3.211-1.183-6.929-.676-7.267-.169c-.845,2.028-.507,4.394,1.183,5.408Z" transform="translate(737.663 85.929)" fill="#333" fill-rule="evenodd"/>
      <path id="Path_574" d="M-625.734-21.376a70.088,70.088,0,0,1,5.07,7.267c.845,1.69,4.394,5.915,4.9,7.944.507,1.69,2.366,4.394,2.366,5.746s2.366,10.141,11.324,4.563c0,0,3.549-3.211,3.718-5.746,0-2.535-2.028-.845-2.2.338,0,1.183-2.535.676-2.366-.676s1.014-4.9.338-5.746c-.507-1.014-1.859-1.014-1.521.845a6.8,6.8,0,0,1-1.014,4.394c-.507,1.352-1.521,2.028-1.859,1.69s1.521-4.9,1.521-6.084-.338-1.859-1.352,0-1.352,4.394-2.366,4.9-1.014-3.887-.676-5.07c.338-1.352,1.352-2.7.169-4.394s-1.352-5.746-2.2-6.76-1.859-1.014-2.366-3.042,0-4.056-1.69-5.07-.507-7.436-1.69-6.591c-1.183.676-4.056,5.408-5.07,5.408s-2.028.507-1.859,1.521.169,2.7-.676,3.211c-.169.169-1.014.338-.507,1.352Z" transform="translate(745.025 86.636)" fill="#4d4d4d" fill-rule="evenodd"/>
      <path id="Path_575" d="M-611.756-2.366s6.084-4.732,5.408-5.07c-.676-.507-3.211,2.7-5.577,3.38-2.366.507-4.9-.507-2.873-1.69s6.084-1.859,6.76-3.211c.845-1.183,2.028-2.028,2.028-.338s1.521,1.69,2.366.507c.845-1.352,2.028-2.873,2.535-1.352s-1.014,2.535-1.859,3.718a43.279,43.279,0,0,1-4.394,3.38c-.845.676-5.578,3.38-4.395.676Z" transform="translate(752.173 101.936)" fill="#333" fill-rule="evenodd"/>
      <path id="Path_576" d="M-611.7.591s6.084-4.056,4.9-4.732-1.183.169-2.7.169-1.183-1.183,1.521-1.521c2.7-.169,3.718,1.014,5.239.676,1.352-.169,2.028-.845,2.366,1.352.338,1.859-1.014,2.535,1.014,3.38s3.38.507,3.549,2.028.507,1.69-.169,2.028c-.845.507-.845-1.69-1.859-1.69s-2.366.507-1.69,2.535c.845,1.859,1.69.676,3.887,1.521s1.859,2.535,3.38,3.042c1.352.507,2.535,1.352,1.352,1.352-1.183.169-4.9-.845-4.057.169a13.528,13.528,0,0,0,5.578,2.873c2.366.507,3.38-.338,4.9,2.2s1.183,3.38.169,3.211c-1.014-.338-5.239-1.352-5.746,0s-1.69,2.2-2.7,1.521c-1.183-.845-1.352-1.521-1.183-2.2s.338-3.211-1.183-4.225-2.366-4.056-3.549-4.056a3.178,3.178,0,0,1-3.042-3.211h0c-.169-2.366.507-4.056-2.028-4.056-2.366,0-4.225-1.69-2.873-2.2s2.7-1.69,1.69-2.028a3.21,3.21,0,0,0-3.549,1.183c-1.183.845-2.366,1.69-3.211.676Z" transform="translate(754.821 105.57)" fill="#333" fill-rule="evenodd"/>
      <path id="Path_577" d="M-612.959-40.112h0c-.338.507-.845,1.014-1.183,1.521a14.689,14.689,0,0,1-8.789,5.07c-3.718,1.014-11.831-1.69-12.169-3.211.676-.169,1.521.845,1.521.845s11.493,4.9,19.267-3.211c-.169-.338,2.366-2.366,1.352-1.014Z" transform="translate(738.673 81.373)" fill="#333" fill-rule="evenodd"/>
      <path id="Path_578" d="M-663.933-42.749s.169,4.056.845,1.183-.507-8.451-1.183-7.267C-664.609-47.482-663.6-45.454-663.933-42.749Z" transform="translate(718.493 75.56)" fill="#333" fill-rule="evenodd"/>
      <path id="Path_579" d="M-693.086-59.3c-.845,1.69-2.028,1.521-1.69,0s.676-.845,1.183-2.2c.507-1.521,1.183-2.7,1.521-2.028A19.213,19.213,0,0,1-693.086-59.3Z" transform="translate(697.449 65.402)" fill="#333" fill-rule="evenodd"/>
      <path id="Path_580" d="M-689.47-54.193c1.521-1.521,2.535-1.521,2.2-3.887-.338-2.2-.169-2.366-1.859-2.366s.169-2.366,2.366-.845c2.2,1.69,5.239,3.38,6.254,5.239s2.366,2.535,5.07,4.394c2.535,1.69,1.521,1.69.845,2.7s-2.873.676-3.211,1.183.338-.169,0-1.352c-.338-1.352-.676-1.014-1.69-1.521-1.014-.338-2.535-.169-2.2-1.69s-.845-2.873-1.521-2.535-2.535,1.014-2.7,1.859-.169,2.7-1.521,2.028c-1.352-.169-2.2-1.69-2.028-3.211Z" transform="translate(700.932 66.722)" fill="#333" fill-rule="evenodd"/>
      <path id="Path_581" d="M-692.229-58.3c0,.676.169,2.366-.845,2.535-1.014.338-1.521-1.183-1.183-2.028s1.352-2.028,2.028-.507Z" transform="translate(697.775 68.632)" fill="#333" fill-rule="evenodd"/>
    </g>
    <path id="Path_582" d="M-512.651,105.814a7.69,7.69,0,0,1,1.352,3.211c0,1.69,2.366,3.887,3.549,4.9a37.211,37.211,0,0,1,5.577,5.915c.676,1.521,3.042,4.9,3.38,6.253a14.708,14.708,0,0,0,2.7,5.07c1.352,1.69,1.859,2.873.676,2.7s-1.352.169-3.718-1.859-3.887-5.915-5.578-6.253-5.07-.676-5.239,0,0,6.253-.676,7.267c-.676.845-1.521,1.352-3.042-.676a80.127,80.127,0,0,1-7.774-14.535,21.366,21.366,0,0,1-.507-4.732c-.338-.676-1.859-1.183-1.183-2.873.507-1.859,8.282-5.746,10.479-4.394Z" transform="translate(1639.483 268.091)" fill="#deaa76" fill-rule="evenodd"/>
    <path id="Path_583" d="M-495.9,131.865h-.338c-1.183-.169-5.408-4.394-5.746-5.07a5.473,5.473,0,0,0-3.38-3.042c-1.521-.338-5.07-.676-5.577,0s-1.521,1.183-2.2,0-.169-2.873.845-3.042h1.859c1.014,0,1.183-1.521.338-1.69s-1.521-1.69-2.028-2.2a31.567,31.567,0,0,0-5.07-4.394c-1.014-.507-1.859-1.014-2.028.507s-.338,1.859,0,2.2c.507.507.507,2.028.507,3.211s.169,1.69,1.521,2.7c1.352,1.352,1.69,1.014,2.2,2.2s.676,2.366,1.352,2.873c.507.507.338.338.676,1.521a8.108,8.108,0,0,1,.845,2.873,1.535,1.535,0,0,1-.507,1.183c-.507,0-1.183-.338-2.028-1.352a80.128,80.128,0,0,1-7.775-14.535l-.169-.507h0a22.9,22.9,0,0,1,.338-3.38.946.946,0,0,1,.845-1.014h.507c.507.338.676-.169.845-.845a1.431,1.431,0,0,1,1.69-1.352c.169,0,.507.169.676.169.507.507.338,1.859,1.014,1.014s2.028-1.183,2.366,0a8.7,8.7,0,0,0,2.7,4.225,11.661,11.661,0,0,1,3.042,2.7,19.12,19.12,0,0,1,1.69,2.2c0,.676.507,2.2,1.352,1.352.845-1.014,2.366-1.69,2.535-1.183,0,.507-.338,1.859.676,2.7a6.626,6.626,0,0,1,2.873,3.549,20.74,20.74,0,0,0,2.028,4.394,10.535,10.535,0,0,1,1.521,2.028Z" transform="translate(1639.967 270.265)" fill="#fff" fill-rule="evenodd" opacity="0.15"/>
    <g id="_2261232298400" transform="translate(996.817 377.49)" opacity="0.4">
      <path id="Path_584" d="M-688.8-44.634-685.758-47a42.338,42.338,0,0,1,8.282,11.493c2.535,5.239-.845,5.408-4.056,5.915-3.211.676-3.887-4.056-2.028-3.042s3.887.169,2.366-3.211-7.1-8.282-7.1-8.282c-.169,0-.338-.338-.507-.507Z" transform="translate(701.564 76.915)" fill="#141414" fill-rule="evenodd"/>
      <path id="Path_585" d="M-696.264-32.269c-.845-2.2,4.563-7.436,9.8-11.831a2.477,2.477,0,0,1,.338,1.859l-3.718,3.549c-.845.845,4.563-3.042,6.084-2.366,1.521.507,2.873.845,3.38,1.69s1.69,2.028,1.183,2.535-.845-.338-1.69-.676-2.2.338-1.352,1.014c1.014.676,1.521,1.183.507,1.69a6.317,6.317,0,0,0-2.2,2.535c-.338,1.183.507,1.014,1.014,1.859.507,1.014-7.437-2.028-7.775-1.183-.507,1.183-2.2,1.859-2.366.676s1.352-3.042.169-2.535-.676,1.69-2.028,1.69a6.958,6.958,0,0,0-1.352-.507Z" transform="translate(696.352 78.916)" fill="#141414" fill-rule="evenodd"/>
      <path id="Path_586" d="M-682.8-40.7c1.69-2.028,2.873-5.408,2.366-11.324a31.373,31.373,0,0,0-1.014-5.746c-.169-1.014-.676-4.394-.845-5.07.169-1.014.169-1.859.845-1.859h.507s1.69.676.845,2.873c-.169.507-.338,1.014-.507,1.69a1.071,1.071,0,0,0,.845,1.014c1.352.169,4.056-.507,5.07-.169s2.873,1.69,1.69,2.2a25.8,25.8,0,0,1-5.07.507,1.711,1.711,0,0,0,.676,1.183c1.352,1.014,3.042.845,2.2,2.535s.169,2.535,1.183,2.2.507.676,0,2.028a13.538,13.538,0,0,1-2.535,3.549c-.676.676-3.042.169-3.042,1.69a2.4,2.4,0,0,1-1.014,2.7Z" transform="translate(705.704 64.7)" fill="#141414" fill-rule="evenodd"/>
      <path id="Path_587" d="M-652.782-46.5a26.415,26.415,0,0,0-4.9,10.31Q-658.7-31.12-659.2-26.05a10.364,10.364,0,0,0-.845-1.859,4.952,4.952,0,0,1,.169-5.07c.845-1.352.676-8.789,2.2-11.324a7.259,7.259,0,0,1,4.9-2.2Z" transform="translate(720.981 77.26)" fill="#141414" fill-rule="evenodd"/>
      <path id="Path_588" d="M-684.6-45.718s2.366-2.535,3.718-2.366c1.521.338,1.183-1.352,2.2-2.028s2.2.338,1.69,1.69-2.366,3.211-1.859,5.408.338,5.746,1.014,6.929-2.366-1.859-3.38-4.563c-1.183-2.7-3.211-2.873-3.38-5.07Z" transform="translate(704.462 74.619)" fill="#141414" fill-rule="evenodd"/>
    </g>
    <path id="Path_589" d="M-530.711,102.827s-43.1-2.535-49.689,4.9v-.169c2.535-7.605,44.45-5.577,46.985-5.408a21.014,21.014,0,0,0,2.7.676Z" transform="translate(1600.079 265.501)" fill-rule="evenodd"/>
    <path id="Path_590" d="M-533.145,103.994s-44.45-2.366-47.154,5.408c-.507-1.859-.676-8.282,4.056-9.634s21.971-.676,36.675,2.535c2.535.676,4.732,1.183,6.422,1.69Z" transform="translate(1599.978 263.658)" fill-rule="evenodd"/>
    <path id="Stool_shadow" d="M-541.84,237.8l-63.21,3.549a1.105,1.105,0,0,0-.169,2.2l110.533,20.281,50.027-5.577Z" transform="translate(1582.307 361.059)" fill-rule="evenodd" opacity="0.31" fill="url(#linear-gradient-6)"/>
    <g id="Right_heel" transform="translate(1032.984 561.226)">
      <path id="Path_494" d="M-662.926-64.7a34.245,34.245,0,0,1,3.042,2.2,11.069,11.069,0,0,1,2.535,3.042c2.535,4.732,3.549,6.76,2.535,9.465-1.183,2.7-3.042,8.113-2.535,11.324.169,1.014,1.352,10.986,0,10.986h-1.521c-1.521,0,0-15.042-2.028-16.563-1.521-1.014-11.155,3.38-13.014,10.479-1.69,7.1-10.817,10.817-17.577,9.465-6.929-1.352-4.732-6.591-4.056-6.76a18.8,18.8,0,0,0,5.746-2.366,7.488,7.488,0,0,0,4.056-5.239c.676-2.535,2.7-18.084,4.056-18.76,2.535-1.521,5.24,3.042,18.76-7.267Z" transform="translate(696.462 64.7)" fill-rule="evenodd"/>
      <path id="Path_495" d="M-691.339-44.782s-1.521-2.2-3.042-1.69c-1.69.507,4.563-2.028,4.563-2.028a6.632,6.632,0,0,1,2.366,1.352c.169.676-3.549,2.7-3.887,2.366Z" transform="translate(697.665 75.88)" fill-rule="evenodd"/>
      <path id="Path_496" d="M-662.907-64.7a34.246,34.246,0,0,1,3.042,2.2c.338.338.507.338.845.845-2.366,3.718-12.507,7.775-17.239,8.282-2.7.338-2.873,2.7-3.042,4.732-2.366,15.887-4.9,18.591-15.887,22.647a3.335,3.335,0,0,1-.338-4.9c4.732-1.69,8.113-3.042,9.3-5.746a70.14,70.14,0,0,0,1.859-8.113,83.536,83.536,0,0,1,2.028-11.324c.169-.338.507-.845.676-1.183,1.014-1.014,6.592-.507,9.3-1.352a68.115,68.115,0,0,0,9.465-6.084Z" transform="translate(696.443 64.7)" fill="#900" fill-rule="evenodd"/>
    </g>
    <path id="Right_heel_shadow" d="M-560.743,238.7c.169,0-3.887,3.549-3.549,3.718,8.62,5.746,39.549,2.7,39.549,2.7s5.577-3.042,8.112-2.7C-513.927,242.752-569.362,232.611-560.743,238.7Z" transform="translate(1611.181 358.643)" fill="#5e5e5e" opacity="0.23"/>
    <g id="Stool" transform="translate(976.092 545.174)">
      <path id="Path_593" d="M-666.715-55.217-672.8-56.4V-7.556l6.084,1.183Z" transform="translate(712.687 70.503)" fill="#630" fill-rule="evenodd"/>
      <path id="Path_594" d="M-654.585-58.355-660.5-59.2l4.732,48,5.746,1.014Z" transform="translate(721.175 68.571)" fill="#301800" fill-rule="evenodd"/>
      <path id="Path_595" d="M-684.231-58.9h-5.915L-696.4-10.394h5.915Z" transform="translate(696.4 68.778)" fill="#630" fill-rule="evenodd"/>
      <path id="Path_596" d="M-683.536-58.9h-3.211L-693-10.394l3.042-1.69,4.9-36.337Z" transform="translate(698.746 68.778)" fill="#301800" fill-rule="evenodd"/>
      <path id="Path_597" d="M-657.439-44.365l-27.211-4.225-8.451-1.352V-58.9l35.83,5.239Z" transform="translate(698.677 68.778)" fill="#630" fill-rule="evenodd"/>
      <path id="Path_598" d="M-692.248-61.02s-1.521,0-1.69,1.183-.338,3.38.338,3.549c.507.169,35.83,5.408,37.351,5.07s7.437-.507,8.112-.845c1.014-.338,19.1-4.225,19.943-4.9.845-.507,1.014-.507,1.183-1.014s.338-3.549-.169-3.718-20.112,2.028-21.971,2.535-14.028,1.183-19.605-.338c-5.239-1.352-23.493-1.521-23.493-1.521Z" transform="translate(697.995 66.842)" fill-rule="evenodd"/>
      <path id="Path_599" d="M-692.248-61.3s-1.521,0-1.69,1.183-.338,3.38.338,3.549a1.523,1.523,0,0,1,.845.169l.507-4.9Z" transform="translate(697.995 67.121)" fill-rule="evenodd"/>
      <path id="Path_600" d="M-653.113-59.1l-3.887.676,4.563,48.168,3.718-2.2Z" transform="translate(723.59 68.64)" fill="#630" fill-rule="evenodd"/>
      <path id="Path_601" d="M-654.824-56.8h0c1.014-.676,1.183-.676,1.352-1.183s.338-3.549-.169-3.718a6.93,6.93,0,0,0-1.859.169.621.621,0,0,0,.169.507,9.118,9.118,0,0,1,.507,4.225Z" transform="translate(724.625 66.845)" fill-rule="evenodd"/>
      <path id="Path_602" d="M-667.9-53.654a6,6,0,0,0,1.69-.338c0-1.521-.169-4.563-.169-4.563a1.047,1.047,0,0,0-1.352-.169l-.169.169v4.9Z" transform="translate(716.068 68.772)" fill-rule="evenodd"/>
      <path id="Path_603" d="M-672.425-53.343c.845,0,1.352.169,1.521,0h.169a23.762,23.762,0,0,0,0-4.9c0-.507-1.183-.507-1.521,0A11.891,11.891,0,0,0-672.425-53.343Z" transform="translate(712.818 68.968)" fill-rule="evenodd"/>
      <path id="Path_604" d="M-628.477-58.247l-20.958,4.225c-6.76,1.352-7.943,1.521-14.2.507-16.056-2.7-28.225-3.549-29.577-4.056-1.352-.676-1.183-1.859,4.056-2.873s28.9-4.225,28.9-4.225,4.563-.169,6.592,0c1.859.169,22.309,3.549,22.309,3.549s7.267.845,2.873,2.873Z" transform="translate(698.11 64.744)" fill="#fff" fill-rule="evenodd"/>
      <path id="Path_605" d="M-667.7-64.5l20.788,3.211,2.366.338c.845,1.014-.338,1.69-2.7,1.69l-.507.507s-18.422-2.028-22.648-1.014C-673.272-58.754-670.568-62.3-667.7-64.5Z" transform="translate(713.497 64.913)" fill="#fff" fill-rule="evenodd"/>
      <path id="Path_606" d="M-664.806-54.11-669.2-55.8V-6.956l4.394-.845Z" transform="translate(715.171 70.917)" fill="#630" fill-rule="evenodd"/>
      <path id="Path_607" d="M-672-52.5l29.239-7.1v9.972L-672-42.361Z" transform="translate(713.239 68.295)" fill="#630" fill-rule="evenodd"/>
    </g>
    <path id="Left_heel_shadow" d="M-556.542,214.167s-19.267-2.2-23.661-1.014,2.2-6.253,5.746-7.1c3.38-.845,2.873,2.535,8.958,3.718,6.084,1.014,10.986.845,12.169,1.859,1.014,1.183-.169,1.859-2.7,1.859l-.507.676Z" transform="translate(1599.206 337.369)" fill-rule="evenodd" opacity="0.7" fill="url(#linear-gradient-7)"/>
    <g id="Left_heel" transform="translate(1006.364 513.651)">
      <path id="Path_505" d="M-693.3-50.374a14.709,14.709,0,0,1,2.873,3.549c.338,1.183,4.563-1.69,4.563-1.69s-2.2-3.38-3.211-3.38c-1.183-.169-3.549,1.521-4.225,1.521Z" transform="translate(698.622 73.527)" fill-rule="evenodd"/>
      <path id="Path_608" d="M-664.423-62.135s2.2-3.887,4.732-1.69c2.535,2.028,6.422,10.141,5.408,12.169s-4.394,7.605-4.563,11.662c0,3.211.676,8.789.676,10.31,0,1.183,0,1.352-.338,1.521-.169.169-2.535.845-2.7-.676a16.392,16.392,0,0,1,.169-2.873v-6.929c-.169-4.732-.676-8.62-3.38-6.084-4.225,4.225-3.887,2.873-6.253,6.76s-2.7,6.253-5.746,8.113-17.746,4.9-19.943-3.042c0,0-.845-4.563,2.873-4.9a17.494,17.494,0,0,0,6.929-2.2c.676-.507,1.014-.845,1.014-1.183-.338-1.014,5.239-17.408,5.239-17.239s.676-.338,1.183.338c.338.169,14.2-3.211,14.7-4.056Z" transform="translate(696.449 64.837)" fill-rule="evenodd"/>
      <path id="Path_609" d="M-660.6-64.532a12.6,12.6,0,0,1,2.366,2.873h0s-11.831,7.436-15.718,6.76c-7.1-1.183,1.521,16.225-22.309,21.8,0,0-.845-4.563,2.873-4.9,5.746-.845,8.45-7.775,10.479-13.014,1.69-4.732,2.535-7.774,2.535-7.605s.676-.338,1.183.338c.338.338,6.422-1.014,10.648-2.2,3.718-1.183,6.929-5.07,7.943-4.056Z" transform="translate(696.518 64.699)" fill="#900" fill-rule="evenodd"/>
    </g>
    <path id="Star-2" data-name="Star" d="M-622.431,103.883l5.915-1.859,3.887,4.9-.169-6.084,6.084-1.859-5.915-2.028L-612.8,90.7l-3.718,4.9-6.084-1.69,3.718,4.9Z" transform="translate(1597.881 241.46)" fill-rule="evenodd" fill="url(#radial-gradient)"/>
    <path id="Star-3" data-name="Star" d="M-551.207-7.693l-1.859-4.732,4.394-3.211-5.239.338-1.69-4.9-1.69,4.9-5.408.169,4.394,2.873-1.521,4.9L-555.6-10.4Z" transform="translate(1612.293 181.321)" fill-rule="evenodd" fill="url(#radial-gradient)"/>
    <path id="Star-4" data-name="Star" d="M-666.679,65.4l9.3-3.718,6.592,7.267-.845-9.634,9.3-3.887-9.972-2.2-.845-9.634-5.239,8.451-9.8-2.2,6.76,7.267Z" transform="translate(1539.487 225.35)" fill-rule="evenodd" fill="url(#radial-gradient)"/>
    <path id="Star-5" data-name="Star" d="M-524.8,24.308l9.972-1.183,4.225,8.789,2.028-9.465L-498.6,21.1l-8.958-4.732,2.028-9.465-7.437,6.76-8.789-4.732,4.394,8.789Z" transform="translate(1638.449 200.023)" fill-rule="evenodd" fill="url(#radial-gradient)"/>
    <g id="Planet" transform="translate(851 321.512)">
      <ellipse id="Ellipse_12" cx="35.323" cy="34.647" rx="35.323" ry="34.647" transform="translate(23.499)" fill="url(#linear-gradient-8)"/>
      <path id="Ring" d="M-586.227,101.681c.507,6.422-1.859,13.352-1.859,13.352-1.352,4.563-17.408,3.887-36-1.69-18.422-5.577-32.281-13.69-30.929-18.422,2.028-6.76,4.394-10.141,5.577-11.662-17.07-2.366-29.07-1.014-30.591,4.225-2.366,8.113,19.436,25.183,51.717,34.985,32.281,9.634,62.872,8.113,65.238.169C-561.552,117.23-570.847,109.118-586.227,101.681Z" transform="translate(680.204 -69.569)" fill="#343434"/>
      <path id="Line" d="M-656.744,86.044S-675,82.156-673.983,89.086c.338,2.535,40.731,40.563,94.815,30.422,0,0,12.845-1.859-11.662-13.859" transform="translate(684.468 -67.622)" fill="none" stroke="#94acd3" stroke-miterlimit="10" stroke-width="0.25"/>
    </g>
    <g id="Plant_small" transform="translate(1104.491 529.384)">
      <path id="Light_part" data-name="Light part" d="M-530.018,225.592a20.234,20.234,0,0,0,9.972,15.549c4.394,2.7,5.915,34.647,5.915,34.647h6.084s2.7-33.3,5.577-35.154,9.8-9.127,9.8-13.859c0-23.661-6.591-12.169-6.591-12.169-.676,12.676-5.07,12.676-6.253,11.662-3.718-2.873-1.014-27.887-7.267-28.563-6.929-.676-4.056,27.042-5.239,28.225-2.2,2.366-6.084.338-7.1-6.591C-525.455,216.8-531.37,215.789-530.018,225.592Z" transform="translate(530.219 -197.693)" fill="#4f4f4f" fill-rule="evenodd"/>
      <g id="Dark_part" data-name="Dark part" transform="translate(18.792 0.012)" clip-path="url(#clip-path-2)">
        <path id="Path_646" data-name="Path 646" d="M-530.018,225.592a20.234,20.234,0,0,0,9.972,15.549c4.394,2.7,5.915,34.647,5.915,34.647h6.084s2.7-33.3,5.577-35.154,9.8-9.127,9.8-13.859c0-23.661-6.591-12.169-6.591-12.169-.676,12.676-5.07,12.676-6.253,11.662-3.718-2.873-1.014-27.887-7.267-28.563-6.929-.676-4.056,27.042-5.239,28.225-2.2,2.366-6.084.338-7.1-6.591C-525.455,216.8-531.37,215.789-530.018,225.592Z" transform="translate(511.427 -197.705)" fill="#303030" fill-rule="evenodd"/>
      </g>
      <path id="Shadow-2" data-name="Shadow" d="M-493.658,254.11s-6.591-2.028-4.563-3.211c.845-.507-22.479-7.1-22.479-7.1h6.084s24.676,6.76,27.718,7.1a140.892,140.892,0,0,1,15.718,2.873c16.394,4.732,4.225,2.535,4.225,2.535-9.127-2.535-11.831-2.535-12-2.366-.338.676,18.591,5.746,15.211,5.746-3.887.169-21.3-5.577-22.817-5.746-3.042-.507-4.056,0,.169,1.352C-484.7,255.969-487.743,256.138-493.658,254.11Z" transform="translate(536.787 -165.874)" fill="#4f4f4f" fill-rule="evenodd" opacity="0.5"/>
      <g id="Plant_small_veins" data-name="Plant small veins" transform="translate(-1104.491 -529.384)">
        <path id="Vein_left" data-name="Vein left" d="M7529.168,555.78s-2.508,11.653,9.967,17.722c4.046,3.372,5.381,31.509,4.72,39.447" transform="translate(-6422 -6)" fill="none" stroke="#707070" stroke-width="1"/>
        <path id="Vein_right" data-name="Vein right" d="M7560.475,549.647s3.271,13.4-5.832,22.168c-5.731,10.452-5.731,3.372-7.754,40.8" transform="translate(-6422 -6)" fill="none" stroke="#707070" stroke-width="1"/>
      </g>
    </g>
    <g id="Plant_big" transform="translate(897.165 503.348)">
      <path id="Light_part-2" data-name="Light part" d="M-652.57,220.842s.338,13.521,14.2,21.633c6.084,3.718,8.282,48,8.282,48h8.451s3.887-46.14,7.943-48.675,13.69-12.507,13.69-19.267c0-32.788-9.3-16.9-9.3-16.9-.845,17.577-7.1,17.577-8.62,16.225-5.239-4.056-1.521-38.7-10.141-39.549-9.8-1.014-5.746,37.52-7.436,39.211-3.211,3.38-8.62.338-10.141-9.127C-646.316,208.674-654.6,207.322-652.57,220.842Z" transform="translate(652.889 -182.288)" fill="#4f4f4f" fill-rule="evenodd"/>
      <g id="Dark_part-2" data-name="Dark part" transform="translate(26.347 0.02)">
        <g id="Group_133" data-name="Group 133" clip-path="url(#clip-path-3)">
          <path id="Path_649" data-name="Path 649" d="M-652.57,220.842s.338,13.521,14.2,21.633c6.084,3.718,8.282,48,8.282,48h8.451s3.887-46.14,7.943-48.675,13.69-12.507,13.69-19.267c0-32.788-9.3-16.9-9.3-16.9-.845,17.577-7.1,17.577-8.62,16.225-5.239-4.056-1.521-38.7-10.141-39.549-9.8-1.014-5.746,37.52-7.436,39.211-3.211,3.38-8.62.338-10.141-9.127C-646.316,208.674-654.6,207.322-652.57,220.842Z" transform="translate(626.542 -182.308)" fill="#303030" fill-rule="evenodd"/>
        </g>
      </g>
      <path id="Shadow-3" data-name="Shadow" d="M-601.542,260.5s-9.3-2.7-6.253-4.394c1.352-.676-31.605-9.8-31.605-9.8h8.451s34.816,9.3,39.042,9.972c4.394.507,17.408,2.535,22.14,3.887,22.985,6.591,5.915,3.38,5.915,3.38-12.845-3.549-16.732-3.549-16.732-3.211-.338.845,26.2,7.944,21.464,8.112-5.408.169-29.915-7.605-32.112-7.943-4.394-.676-5.577,0,.169,1.859C-589.035,263.032-593.26,263.2-601.542,260.5Z" transform="translate(662.197 -138.113)" fill="#4f4f4f" fill-rule="evenodd" opacity="0.5"/>
      <g id="Plant_big_veins" data-name="Plant big veins" transform="translate(-897.165 -503.348)">
        <path id="Vein_left-2" data-name="Vein left" d="M7321.669,537.426s3.708,16.521,12.475,22.252,9.777,56.979,9.777,56.979" transform="translate(-6422 -6)" fill="none" stroke="#707070" stroke-width="1"/>
        <path id="Vein_right-2" data-name="Vein right" d="M7366.511,529.671s5.394,15.509-6.069,27.984-12.812,58.665-12.812,58.665" transform="translate(-6422 -6)" fill="none" stroke="#707070" stroke-width="1"/>
      </g>
    </g>
  </g>
</svg>
