<svg xmlns="http://www.w3.org/2000/svg" xmlns:xlink="http://www.w3.org/1999/xlink" width="56" height="56" viewBox="0 0 56 56">
  <defs>
    <clipPath id="clip-path">
      <circle id="Ellipse_23" data-name="Ellipse 23" cx="28" cy="28" r="28" transform="translate(354 880)" fill="#545465"/>
    </clipPath>
  </defs>
  <g id="Avatar_woman" data-name="Avatar woman" transform="translate(-354 -880)">
    <circle id="Ellipse_22" data-name="Ellipse 22" cx="28" cy="28" r="28" transform="translate(354 880)" fill="#ff9a9a"/>
    <g id="Mask_Group_12" data-name="Mask Group 12" clip-path="url(#clip-path)">
      <g id="Avatar_woman-2" data-name="Avatar woman" transform="translate(364.902 883.15)">
        <g id="_1907973926192" transform="translate(0.276 4.384)">
          <path id="Path_723" data-name="Path 723" d="M379.847,96.154c1.029-.664,1.378-.379,2.736-.393a21.789,21.789,0,0,0,9.958-2.58,14.487,14.487,0,0,1,2.048-1.1c1.629-.361,1.625,1.12,3.582,2.5,2.07,1.464,2.015.408,2.015,4.311a18.237,18.237,0,0,1-.484,5.744,10.255,10.255,0,0,1-2.294,3.919,9.607,9.607,0,0,1-3.651,2.54,8.016,8.016,0,0,0,.209,2.185c.627,1.151.636,1.431,1.546,2.1a4.57,4.57,0,0,0,2.86.861,9.588,9.588,0,0,1,1.7.238,10.62,10.62,0,0,0,1.429.426c.229-.217.537-.433.82-.655a11.241,11.241,0,0,0,4.043-6.757c.619-3.488-.25-5.8-1.847-8.453-4.019-6.671,1.271-12-5.093-18.13l-1.294-1c-.168-.125.014-.044-.229-.153-.4-.182-.069-.076-.319-.06l-.09-.034c.482,1.78-.644,1.726-2.132,1.7-1.329-.024-2.661-.016-3.991-.017-4.687,0-8.255,1.659-10.409,5.818-1.16,2.24-1.174,4.22-1.119,7Z" transform="translate(-372.925 -80.162)" fill="#42434d" fill-rule="evenodd"/>
          <path id="Path_724" data-name="Path 724" d="M350.838,656.632c-.7.769-.537,1.533-.539,2.74,0,1.058-.021,2.135.019,3.19a10.428,10.428,0,0,0,6.415,9.054,10.585,10.585,0,0,0,4.009.766,11,11,0,0,0,4.007-.807,9.609,9.609,0,0,0,3.651-2.54,10.258,10.258,0,0,0,2.294-3.919,18.243,18.243,0,0,0,.484-5.744c0-3.9.055-2.847-2.015-4.311-1.957-1.384-1.953-2.865-3.582-2.5a14.5,14.5,0,0,0-2.048,1.1,21.789,21.789,0,0,1-9.958,2.58c-1.358.015-1.706-.271-2.736.393Z" transform="translate(-343.916 -640.64)" fill="#ffedd6" fill-rule="evenodd"/>
          <path id="Path_725" data-name="Path 725" d="M1.641,32.876l-.022-.184A1.145,1.145,0,0,0,3,32.512c.636-.654-.173-2.259.732-5.29a17.854,17.854,0,0,1,2.009-4.014c.171-.328.421-1.133.674-1.287-.04-1.055-.019-2.133-.019-3.19,0-1.207-.162-1.971.538-2.74-.055-2.777-.041-4.757,1.119-7,2.154-4.159,5.722-5.82,10.409-5.818,1.329,0,2.662-.008,3.991.017,1.488.027,2.614.081,2.132-1.7l.09.034c-.158-.251-.012-.084-.224-.249A10.856,10.856,0,0,0,22.057.324,14.426,14.426,0,0,0,19.226,0h-4.4A10.238,10.238,0,0,0,6.682,3.225c-4.777,4.723-1.859,10.325-3.523,15.3C2.154,21.535.381,22.319.022,26.765c-.1,1.3.631,5.49,1.619,6.112Z" transform="translate(-0.012 0)" fill="#585966" fill-rule="evenodd"/>
          <path id="Path_726" data-name="Path 726" d="M88.462,1216.854c-.024.4.376.818.6,1.121a18.353,18.353,0,0,0,2.841,2.753,8.273,8.273,0,0,0,1.354-.415,9.136,9.136,0,0,1,1.694-.25,5.2,5.2,0,0,0,2.956-.857,4.669,4.669,0,0,0,1.533-2.118,7.357,7.357,0,0,0,.209-2.133,10.428,10.428,0,0,1-6.415-9.054c-.253.154-.5.959-.674,1.287a17.843,17.843,0,0,0-2.009,4.014c-.9,3.031-.1,4.636-.732,5.29a1.145,1.145,0,0,1-1.379.18l.022.184Z" transform="translate(-86.832 -1183.978)" fill="#42434d" fill-rule="evenodd"/>
          <path id="Path_727" data-name="Path 727" d="M708.91,2013.483c.226.514,1.528,8.63,1.7,10.29.069.689-.187.788-.545,1.093h6.48c.219-1.772.538-3.588.817-5.346.049-.309.671-5.081.881-5.337a8.171,8.171,0,0,1,.174-1.664,21.385,21.385,0,0,1-2,1.1,9.683,9.683,0,0,1-2.419.647c-2.205.3-3.317-.217-5.085-.786Z" transform="translate(-696.023 -1975.934)" fill="#fafafa" fill-rule="evenodd"/>
          <path id="Path_728" data-name="Path 728" d="M1128.66,2114.742h10.061c-1.159-.9-.24-1.437-.71-3.977a7.849,7.849,0,0,0-7.6-6.431l-.057-.275c-.21.256-.832,5.028-.881,5.337C1129.2,2111.155,1128.879,2112.97,1128.66,2114.742Z" transform="translate(-1108.142 -2065.81)" fill="#dedde0" fill-rule="evenodd"/>
          <path id="Path_729" data-name="Path 729" d="M170.7,2130.265H180.71l-1.568-10.227-.5-.169a8.217,8.217,0,0,0-5.759,3.055c-2.423,3.017-1.218,6.345-1.826,7.061l-.286.234C170.756,2130.2,170.721,2130.249,170.7,2130.265Z" transform="translate(-167.597 -2081.333)" fill="#dedde0" fill-rule="evenodd"/>
          <path id="Path_730" data-name="Path 730" d="M35.346,1939.362a6.036,6.036,0,0,1-.735.457,7.834,7.834,0,0,0-3.548,4.862,21.608,21.608,0,0,0-.209,4.569c0,1.8-.07,2.214.71,2.294h1.815c.021-.016.056-.065.067-.046l.286-.234c.608-.717-.6-4.044,1.826-7.062a8.218,8.218,0,0,1,5.759-3.055l.5.169-.279-2.163-.191-1.314a5.2,5.2,0,0,1-2.956.857,9.137,9.137,0,0,0-1.694.25,8.233,8.233,0,0,1-1.354.415Z" transform="translate(-30.276 -1902.612)" fill="#fafafa" fill-rule="evenodd"/>
          <path id="Path_731" data-name="Path 731" d="M1221.558,1938.56a8.189,8.189,0,0,0-.174,1.664l.057.275a7.849,7.849,0,0,1,7.6,6.431c.47,2.541-.449,3.079.71,3.977h1.764c.807-.076.729-.481.729-2.294a21.375,21.375,0,0,0-.208-4.57,7.815,7.815,0,0,0-3.487-4.827,5.837,5.837,0,0,1-.8-.5,10.6,10.6,0,0,1-1.429-.426,9.6,9.6,0,0,0-1.7-.238,4.572,4.572,0,0,1-2.86-.86l-.2,1.369Z" transform="translate(-1199.167 -1901.974)" fill="#fafafa" fill-rule="evenodd"/>
          <path id="Path_732" data-name="Path 732" d="M609.19,1823.428l.191,1.314a18.456,18.456,0,0,1,1.622,1.006c1.768.57,2.88,1.088,5.085.786a9.661,9.661,0,0,0,2.419-.647,21.5,21.5,0,0,0,2-1.1l.2-1.369c-.91-.665-.919-.945-1.546-2.1-.57.1-1.245.432-1.962.59a10.306,10.306,0,0,1-2.254.241,10.644,10.644,0,0,1-2.333-.259c-.69-.158-1.307-.464-1.885-.583a4.671,4.671,0,0,1-1.533,2.119Z" transform="translate(-598.116 -1788.2)" fill="#ffedd6" fill-rule="evenodd"/>
          <path id="Path_733" data-name="Path 733" d="M619.988,2012.323l1.568,10.226h.925c.358-.3.614-.4.545-1.093-.167-1.66-1.469-9.776-1.7-10.29a18.447,18.447,0,0,0-1.622-1.006l.279,2.163Z" transform="translate(-608.445 -1973.617)" fill="#dfeef2" fill-rule="evenodd"/>
          <path id="Path_734" data-name="Path 734" d="M693.53,1703.875c.578.119,1.195.425,1.885.583a10.635,10.635,0,0,0,2.333.259,10.291,10.291,0,0,0,2.254-.241c.717-.158,1.392-.489,1.962-.59a8.022,8.022,0,0,1-.209-2.186,11,11,0,0,1-4.007.808,10.581,10.581,0,0,1-4.009-.766,7.354,7.354,0,0,1-.209,2.133Z" transform="translate(-680.922 -1670.765)" fill="#ffdfba" fill-rule="evenodd"/>
        </g>
      </g>
    </g>
  </g>
</svg>
